<svg width="47" height="45" viewBox="0 0 47 45" fill="none" xmlns="http://www.w3.org/2000/svg">
<path d="M19.1452 2.09356C20.3615 1.03514 21.9798 0.454065 23.5918 0.496292C25.1294 0.525667 26.6477 1.11959 27.7961 2.14037C28.9729 3.16758 29.7615 4.62807 29.9698 6.17668C30.0828 7.02489 30.0194 7.88227 30.0378 8.73414C30.0258 8.97649 30.2021 9.16284 30.3021 9.36754C30.4802 9.67139 30.5307 10.0248 30.5812 10.3672C31.8361 9.29227 33.5059 8.71487 35.1573 8.80391C36.3864 8.85348 37.5963 9.26932 38.6052 9.97157C39.9013 10.8703 40.8615 12.2454 41.2407 13.7784C41.517 14.8276 41.4288 15.9209 41.4417 16.994C41.4188 17.2364 41.5803 17.4301 41.6877 17.6311C42.166 18.4637 42.0191 19.5827 41.3857 20.2941C41.0112 20.7504 40.454 21.0065 39.8812 21.1056C39.7581 21.5664 39.6553 22.0373 39.4341 22.4642C39.1202 23.1508 38.6162 23.7255 38.0571 24.224C38.059 24.6407 38.059 25.0584 38.0581 25.4761C40.0409 26.2481 42.0274 27.01 44.0102 27.782C45.7268 28.4778 46.9871 30.2174 47 32.0864V39.2313C46.9596 39.5645 46.7044 39.8748 46.3528 39.884C45.9627 39.9189 45.6139 39.5682 45.6304 39.1808C45.5946 38.1013 45.6616 33.0199 45.5973 31.9413C45.5312 30.6479 44.616 29.4757 43.4135 29.0268C42.2945 28.5972 41.1801 28.1584 40.0602 27.7315C39.5599 28.7422 39.0531 29.7501 38.551 30.7599C38.395 31.0968 38.1021 31.3869 37.7212 31.4419C37.4036 31.5154 37.1006 31.3685 36.8234 31.2308C36.7334 31.3648 36.6435 31.4979 36.5535 31.632C37.0538 34.6135 37.5605 37.5933 38.0654 40.5739C38.1398 40.9319 38.0893 41.3266 37.8378 41.6075C37.3907 42.1262 36.9143 42.62 36.4599 43.1332C38.1453 43.135 39.8297 43.1341 41.5142 43.1341C41.5142 39.8671 41.5179 36.6 41.5124 33.333C41.5161 33.0879 41.5179 32.8106 41.6969 32.6206C41.9383 32.3315 42.4258 32.3186 42.6828 32.594C42.8893 32.7822 42.8893 33.0796 42.8948 33.3375C42.8893 36.6028 42.8939 39.868 42.8921 43.1341C43.7908 43.1176 44.6922 43.1681 45.5891 43.1112C45.6166 42.9753 45.6221 42.8358 45.6258 42.6981C45.6249 41.2881 45.6157 39.8781 45.6276 38.4681C45.6038 38.0706 45.9517 37.697 46.3574 37.742C46.6906 37.7466 46.9302 38.032 47 38.3377V43.1139C46.9486 43.9025 46.228 44.5515 45.4376 44.5101C38.4592 44.5138 31.4817 44.5092 24.5043 44.5129C24.1554 44.5239 23.8167 44.4257 23.5 44.2889C23.1824 44.4257 22.8446 44.5248 22.4957 44.5129C15.5173 44.5092 8.53895 44.5138 1.56055 44.5101C0.772012 44.5505 0.0541602 43.9043 0 43.1185V32.09C0.0146875 30.591 0.818828 29.1599 2.03973 28.3062C2.63549 27.8628 3.35334 27.6471 4.03447 27.3763C5.66846 26.741 7.30428 26.1131 8.93643 25.4751C8.93551 25.0878 8.93551 24.7013 8.93734 24.3148C7.92115 23.5309 7.26205 22.3596 7.01787 21.1084C6.49004 21.0046 5.96588 20.7972 5.59227 20.3969C4.94969 19.7534 4.72478 18.7097 5.09656 17.8725C5.21773 17.5806 5.48119 17.3318 5.44723 16.9922C5.45273 15.8851 5.38021 14.7542 5.68314 13.6756C6.24678 11.4954 8.0258 9.68424 10.1913 9.0692C10.6696 8.92967 11.146 9.452 10.9881 9.91832C10.9009 10.2727 10.5199 10.3938 10.2197 10.5122C8.62799 11.086 7.38506 12.5042 6.98666 14.1437C6.79572 14.8956 6.81775 15.6777 6.82418 16.4469C6.87008 16.4322 6.96187 16.4047 7.00777 16.39C7.13996 16.1871 7.26756 15.9631 7.48971 15.8475C7.77978 15.6832 8.12402 15.7006 8.44531 15.6988C10.34 15.7548 12.2374 15.2104 13.8457 14.2153C14.1505 14.0317 14.5039 13.8573 14.8702 13.9436C15.3264 14.0372 15.6082 14.4421 15.9148 14.756C16.3885 15.2949 16.9806 15.7704 17.2119 16.4763C17.3285 15.3903 17.2459 14.2502 16.7851 13.2469C16.2021 11.9397 15.0556 10.8877 13.6878 10.4535C13.4244 10.3534 13.1058 10.2791 12.958 10.0129C12.7818 9.72004 12.8708 9.3042 13.1563 9.11418C13.3436 8.97373 13.5942 8.97557 13.8108 9.03707C14.727 9.28951 15.5779 9.75493 16.3077 10.3617C16.361 10.0202 16.416 9.6668 16.6061 9.36938C16.6951 9.19313 16.8466 9.03248 16.8475 8.8241C16.8769 7.81342 16.7777 6.78897 16.9843 5.79114C17.2652 4.36278 18.0408 3.0409 19.1452 2.09356ZM20.8342 2.57274C19.6298 3.2658 18.7229 4.46008 18.3888 5.8095C18.1905 6.57967 18.2217 7.38289 18.2364 8.17051C18.52 8.05485 18.5971 7.71703 18.8569 7.57016C19.2562 7.3067 19.7538 7.41869 20.2017 7.40584C21.9835 7.38198 23.7524 6.8468 25.2643 5.9068C25.5122 5.7636 25.7766 5.60754 26.0749 5.62315C26.4292 5.61764 26.7404 5.82785 26.9699 6.0803C27.3977 6.54295 27.8356 6.99551 28.2459 7.47286C28.4332 7.6693 28.4726 7.95295 28.6415 8.16317C28.7012 7.12311 28.6801 6.04266 28.2542 5.07237C27.7034 3.75692 26.5972 2.68473 25.2561 2.19453C23.8231 1.65752 22.1524 1.79338 20.8342 2.57274ZM19.7446 8.7727C19.7226 9.83112 19.7345 10.8895 19.7372 11.9489C19.7382 12.7796 20.0108 13.6131 20.5396 14.2594C21.1629 15.0525 22.1331 15.5491 23.1365 15.6235C24.3317 15.7603 25.5682 15.2389 26.3228 14.3062C26.8735 13.6508 27.148 12.7943 27.1544 11.9434C27.1618 10.7298 27.1563 9.51625 27.1563 8.3027C26.7753 7.89512 26.3925 7.48846 26.018 7.07446C24.1417 8.20998 21.9468 8.86082 19.7446 8.7727ZM17.7012 10.4737C17.6975 10.8859 17.9977 11.2145 18.3493 11.388C18.3566 10.7711 18.3557 10.1533 18.3493 9.53553C18.005 9.72463 17.6764 10.0487 17.7012 10.4737ZM28.5387 9.49514C28.5314 10.1249 28.5332 10.7555 28.5378 11.3852C28.9224 11.2062 29.2355 10.8244 29.1859 10.3801C29.1813 9.97799 28.8775 9.66772 28.5387 9.49514ZM32.0784 10.9712C30.9199 11.6946 30.0653 12.8898 29.7679 14.2236C29.5953 14.9571 29.6329 15.7162 29.6394 16.4644C29.912 16.3762 29.9754 16.0614 30.1993 15.9099C30.4857 15.685 30.8658 15.6905 31.2109 15.6969C33.1552 15.7704 35.0985 15.1911 36.7426 14.1667C37.0336 13.9877 37.3843 13.8573 37.7276 13.9574C38.0406 14.0272 38.271 14.2704 38.4831 14.4944C38.8778 14.9277 39.2909 15.3435 39.6663 15.7942C39.8362 15.9879 39.8968 16.2486 40.0464 16.457C40.107 15.4289 40.0868 14.3613 39.6709 13.4002C39.1119 12.0352 37.9497 10.929 36.5508 10.4572C35.0848 9.94127 33.3884 10.1322 32.0784 10.9712ZM18.0757 12.7356C18.2584 13.1881 18.4181 13.6517 18.5063 14.1327C18.6981 15.1076 18.61 16.1064 18.6338 17.0923C18.6302 17.3383 18.822 17.52 18.9349 17.7211C19.404 17.5384 19.8749 17.3594 20.3431 17.1721C20.3404 16.7838 20.3413 16.3964 20.3422 16.0081C19.3196 15.2306 18.6651 14.0529 18.4236 12.8017C18.307 12.7796 18.1914 12.7576 18.0757 12.7356ZM28.4708 12.7989C28.256 14.0171 27.6015 15.1315 26.6523 15.9218C26.6532 16.3386 26.6532 16.7544 26.6505 17.1712C27.0883 17.3502 27.5345 17.5099 27.9696 17.6954C28.0761 17.5329 28.2532 17.3878 28.2532 17.1795C28.2817 16.2266 28.1945 15.2655 28.3496 14.3191C28.4313 13.772 28.614 13.2469 28.8086 12.731C28.7242 12.7484 28.5553 12.7824 28.4708 12.7989ZM8.32506 17.0812C8.32506 18.0938 8.32414 19.1063 8.32506 20.1188C8.32781 20.7247 8.42787 21.3397 8.70234 21.885C9.10809 22.7277 9.85715 23.3959 10.7393 23.7081C11.7427 24.0707 12.9066 24.0202 13.8457 23.4969C14.7967 22.9819 15.4935 22.0208 15.6807 20.9541C15.7964 20.2501 15.7377 19.534 15.7514 18.8235C15.7413 18.0938 15.7707 17.3631 15.7404 16.6342C15.4109 16.1789 14.9739 15.8007 14.604 15.3747C12.7295 16.524 10.5282 17.151 8.32506 17.0812ZM31.1366 17.0812C31.1403 18.1543 31.1283 19.2274 31.1421 20.2996C31.1568 21.3167 31.5937 22.3247 32.3593 22.9994C33.2011 23.7659 34.4064 24.0716 35.5208 23.8926C36.6517 23.7117 37.6624 22.9498 38.1682 21.9263C38.4712 21.3415 38.5666 20.6751 38.5639 20.0242C38.5639 18.8869 38.5602 17.7495 38.5657 16.6131C38.1857 16.1954 37.7992 15.7841 37.4118 15.3738C35.5401 16.5268 33.3379 17.1492 31.1366 17.0812ZM21.7173 16.7397C21.7458 17.0032 21.6338 17.3217 21.8311 17.5393C22.3865 18.225 22.941 18.9107 23.4972 19.5956C24.0535 18.9107 24.6089 18.2259 25.1643 17.5411C25.3616 17.3126 25.2487 16.9848 25.2744 16.7104C24.1306 17.118 22.8703 17.1069 21.7173 16.7397ZM39.9445 17.7945C39.9381 18.4251 39.9371 19.0567 39.9445 19.6873C40.3053 19.5093 40.61 19.165 40.5935 18.7409C40.6119 18.315 40.3034 17.9735 39.9445 17.7945ZM6.30186 18.6473C6.2376 19.1008 6.54971 19.5028 6.94443 19.6855C6.94902 19.0677 6.9527 18.449 6.94168 17.8312C6.63967 18.0111 6.33307 18.2709 6.30186 18.6473ZM17.133 17.7945C17.1265 18.4261 17.1265 19.0567 17.133 19.6883C17.4616 19.5184 17.759 19.2219 17.7755 18.8318C17.8315 18.3829 17.5304 17.9735 17.133 17.7945ZM29.107 18.7363C29.0868 19.1604 29.3924 19.5102 29.755 19.6873C29.7624 19.0696 29.7615 18.4518 29.755 17.834C29.4218 18.0194 29.1014 18.326 29.107 18.7363ZM19.6308 18.9291C20.0806 19.8333 20.5304 20.7366 20.982 21.6389C21.486 21.2754 21.9945 20.9183 22.5012 20.5576C21.9385 19.8627 21.3758 19.1659 20.8104 18.4729C20.4175 18.6253 20.0237 18.7758 19.6308 18.9291ZM26.1832 18.4692C25.6214 19.1669 25.0523 19.8599 24.496 20.5622C25.0046 20.9183 25.5104 21.2773 26.0143 21.6399C26.4669 20.7366 26.9167 19.8333 27.3656 18.9291C26.9718 18.7749 26.577 18.6225 26.1832 18.4692ZM17.0641 21.1084C16.8502 22.3265 16.1875 23.4336 15.2447 24.2285C15.2484 24.6471 15.2438 25.0648 15.2511 25.4834C17.2055 26.2288 19.1525 26.9925 21.1041 27.7434C21.3538 26.2747 21.6026 24.805 21.8504 23.3363C21.7577 23.1986 21.6659 23.06 21.5741 22.9223C21.3455 23.0462 21.1041 23.1784 20.8351 23.1591C20.4303 23.1518 20.0604 22.8892 19.8887 22.5285C19.4894 21.7399 19.0983 20.9468 18.7027 20.1564C18.296 20.665 17.7076 21.0065 17.0641 21.1084ZM27.1076 22.5294C26.9249 22.9177 26.5063 23.1876 26.0731 23.1573C25.8362 23.1499 25.6269 23.0306 25.4231 22.9241C25.3304 23.0609 25.2386 23.1977 25.1468 23.3354C25.3938 24.8059 25.6435 26.2756 25.8931 27.7462C27.8438 26.9925 29.7918 26.2316 31.7443 25.4816C31.7489 25.0924 31.7452 24.7031 31.7516 24.3139C31.3936 23.977 31.0071 23.6631 30.7363 23.2463C30.248 22.6294 29.9625 21.8767 29.823 21.1074C29.2144 21.012 28.6571 20.7035 28.2505 20.2409C27.8686 21.0037 27.4932 21.7693 27.1076 22.5294ZM22.6913 22.1135C22.7748 22.2402 22.8602 22.3669 22.9446 22.4945C23.3137 22.4945 23.6827 22.4945 24.0526 22.4945C24.1371 22.3669 24.2215 22.2402 24.306 22.1135C24.037 21.9208 23.7671 21.7298 23.4963 21.5398C23.2274 21.7298 22.9593 21.9217 22.6913 22.1135ZM23.1558 23.8715C22.8969 25.4054 22.638 26.9393 22.3782 28.4732C22.8051 28.8377 23.1861 29.2507 23.5 29.718C23.813 29.2517 24.1958 28.8413 24.619 28.4732C24.3601 26.9393 24.1004 25.4063 23.8415 23.8724C23.6129 23.8715 23.3843 23.8715 23.1558 23.8715ZM33.1249 25.0382C33.124 25.2594 33.124 25.4816 33.1249 25.7028C33.7188 26.4344 34.31 27.167 34.903 27.8986C35.4464 27.2294 35.9862 26.5583 36.5324 25.8919C36.7747 25.6606 36.6591 25.3053 36.6802 25.0097C35.5373 25.4155 34.277 25.4063 33.1249 25.0382ZM10.429 25.846C10.9826 26.5299 11.537 27.2138 12.0915 27.8986C12.6845 27.167 13.2775 26.4353 13.8696 25.7037C13.8696 25.4724 13.8696 25.2411 13.8696 25.0097C12.7286 25.4146 11.4682 25.4109 10.3207 25.0364C10.3363 25.3044 10.2243 25.6266 10.429 25.846ZM8.22959 27.2239C8.66471 28.1345 9.1292 29.0314 9.57441 29.9374C10.0821 29.5785 10.5897 29.2195 11.0955 28.8597C10.5282 28.1639 9.97281 27.4589 9.39725 26.7695C9.01078 26.9283 8.62065 27.0788 8.22959 27.2239ZM13.0875 28.8569C13.5942 29.2177 14.1028 29.5775 14.6104 29.9383C15.0611 29.0359 15.51 28.1327 15.9607 27.2312C15.5669 27.077 15.1713 26.9246 14.7765 26.7722C14.2129 27.4662 13.6502 28.1611 13.0875 28.8569ZM31.0356 27.2312C31.4872 28.1327 31.9361 29.0359 32.3869 29.9383C32.8936 29.5785 33.4012 29.2205 33.907 28.8588C33.3434 28.163 32.7816 27.4662 32.217 26.7713C31.8232 26.9246 31.4294 27.077 31.0356 27.2312ZM37.5816 26.7741C37.0253 27.4726 36.459 28.162 35.899 28.8569C36.4057 29.2177 36.9134 29.5785 37.4228 29.9374C37.8717 29.0369 38.3188 28.1345 38.7732 27.2349C38.3784 27.0742 37.981 26.9209 37.5816 26.7741ZM3.92248 28.8973C3.25787 29.1149 2.62998 29.4766 2.18293 30.0228C1.60369 30.6736 1.36502 31.5567 1.37695 32.415C1.38063 35.9372 1.36961 39.4595 1.38246 42.9817C1.35217 43.1451 1.54219 43.1286 1.645 43.135C2.46566 43.1369 3.28725 43.1332 4.10791 43.1341C4.10975 39.8065 4.10424 36.4779 4.11066 33.1503C4.0666 32.7023 4.51182 32.2865 4.95611 32.4132C5.32789 32.4866 5.51975 32.8832 5.48578 33.2366C5.48486 36.5357 5.48486 39.8349 5.48578 43.1341C7.16842 43.1341 8.85197 43.135 10.5355 43.1341C10.1344 42.6917 9.73414 42.2483 9.33023 41.8095C9.17418 41.636 9.01354 41.4542 8.94652 41.2257C8.8483 40.9227 8.92816 40.6051 8.97682 40.3022C9.45875 37.4868 9.92783 34.6704 10.4098 31.855C10.5006 31.6072 10.284 31.4181 10.1729 31.2216C9.92691 31.3575 9.65795 31.4943 9.36695 31.4548C8.98232 31.4282 8.64635 31.1702 8.48295 30.8278C7.9643 29.7969 7.45023 28.7642 6.93617 27.7315C5.93008 28.1143 4.92766 28.5109 3.92248 28.8973ZM15.7221 30.7902C15.5605 31.1307 15.2447 31.4098 14.8592 31.4465C14.5544 31.4979 14.2707 31.3538 14.0036 31.229C13.9164 31.3685 13.8283 31.5071 13.7411 31.6466C14.2496 34.6291 14.7499 37.6125 15.2576 40.595C15.3292 40.9392 15.275 41.3211 15.0382 41.5928C14.5911 42.1179 14.1028 42.6063 13.6585 43.1341C15.3402 43.1332 17.0219 43.135 18.7036 43.1341C18.7055 39.8037 18.699 36.4742 18.7064 33.1448C18.6724 32.7344 19.0387 32.3397 19.4582 32.3975C19.8272 32.4233 20.0962 32.7803 20.0778 33.1393C20.0852 36.4706 20.0778 39.8028 20.0815 43.1341C20.9444 43.1277 21.8082 43.146 22.6711 43.1268C22.8611 43.1433 22.7941 42.8945 22.8134 42.7825C22.8088 39.5393 22.8124 36.2971 22.8115 33.0539C22.8106 32.4389 22.8427 31.8082 22.6546 31.2143C22.3626 30.2541 21.6292 29.4261 20.6892 29.0616C19.5436 28.6173 18.3979 28.174 17.2523 27.7297C16.7401 28.7486 16.2352 29.7712 15.7221 30.7902ZM26.3714 29.0378C25.4461 29.4105 24.6759 30.1779 24.3656 31.1335C24.1545 31.7522 24.1903 32.415 24.1885 33.0594C24.1866 36.2723 24.1921 39.4852 24.1857 42.6981C24.2041 42.8349 24.1508 43.0028 24.2472 43.1176C25.1358 43.158 26.0281 43.1213 26.9176 43.135C26.9231 39.8028 26.9139 36.4715 26.9222 33.1393C26.9038 32.784 27.1682 32.4278 27.5336 32.3985C27.9558 32.3351 28.334 32.7335 28.2936 33.1494C28.3001 36.4779 28.2945 39.8056 28.2964 43.1341C29.9799 43.1341 31.6626 43.135 33.3461 43.1341C32.9 42.6329 32.4392 42.1445 31.9958 41.6415C31.7369 41.3606 31.6571 40.9576 31.7397 40.5913C32.2501 37.6089 32.7449 34.6245 33.2589 31.643C33.1653 31.5025 33.0707 31.363 32.9762 31.2235C32.464 31.6154 31.636 31.4998 31.3367 30.9013C30.7933 29.8502 30.2792 28.7853 29.744 27.7297C28.6204 28.1657 27.4959 28.6017 26.3714 29.0378ZM11.2846 30.4157C11.37 30.5414 11.4553 30.6672 11.5407 30.7939C11.9116 30.7929 12.2824 30.7939 12.6533 30.7911C12.735 30.6635 12.8167 30.5368 12.8984 30.4101C12.6285 30.221 12.3604 30.0301 12.0933 29.8382C11.8225 30.0292 11.5536 30.222 11.2846 30.4157ZM34.0998 30.4065C34.1815 30.535 34.2632 30.6644 34.3449 30.7929C34.7157 30.7929 35.0866 30.7929 35.4575 30.7939C35.5419 30.6672 35.6273 30.5414 35.7127 30.4157C35.4419 30.221 35.172 30.0274 34.8984 29.8382C34.635 30.0319 34.3697 30.221 34.0998 30.4065ZM11.7528 32.1726C11.2616 35.0541 10.7705 37.9357 10.2895 40.819C10.8954 41.4726 11.4893 42.1372 12.0915 42.7954C12.6937 42.1299 13.306 41.4717 13.9008 40.7997C13.4042 37.9265 12.9259 35.0486 12.4357 32.1736C12.2081 32.1726 11.9804 32.1726 11.7528 32.1726ZM34.5615 32.1736C34.0722 35.0496 33.5912 37.9274 33.0964 40.8034C33.6931 41.4717 34.3008 42.1308 34.903 42.7954C35.5052 42.1372 36.101 41.4726 36.7077 40.8181C36.2267 37.9347 35.7356 35.0532 35.2445 32.1717C35.0168 32.1726 34.7892 32.1726 34.5615 32.1736Z" fill="white"/>
</svg>
