<svg width="40" height="52" viewBox="0 0 40 52" fill="none" xmlns="http://www.w3.org/2000/svg">
<path d="M19.9093 0H20.1215C20.4943 0.0832812 20.8152 0.400156 20.8051 0.798281C20.8254 2.56445 20.801 4.33063 20.8162 6.09578C20.8071 6.40758 20.8447 6.76609 20.6222 7.01797C20.3379 7.37953 19.7427 7.40797 19.4269 7.07383C19.1801 6.85141 19.1841 6.49695 19.1831 6.19227C19.1973 4.39359 19.174 2.59492 19.1943 0.797266C19.1821 0.387969 19.5213 0.0629688 19.9093 0Z" fill="white"/>
<path d="M16.4779 3.29772C16.9735 3.09967 17.5738 3.51405 17.5565 4.04928C17.5677 4.86889 17.5677 5.68952 17.5575 6.50912C17.5667 6.93873 17.1807 7.31858 16.7531 7.31045C16.3235 7.32264 15.9315 6.9428 15.9427 6.50912C15.9325 5.69155 15.9325 4.87295 15.9427 4.05538C15.9366 3.72225 16.1621 3.40538 16.4779 3.29772Z" fill="white"/>
<path d="M22.9785 3.29772C23.4762 3.09967 24.0764 3.51709 24.0571 4.05334C24.0663 4.87193 24.0673 5.69154 24.0561 6.51014C24.0663 6.94076 23.6783 7.31959 23.2507 7.31045C22.8211 7.32162 22.4311 6.94178 22.4423 6.51014C22.4321 5.69357 22.4332 4.876 22.4423 4.05842C22.4352 3.72326 22.6617 3.40436 22.9785 3.29772Z" fill="white"/>
<path d="M18.9304 8.1981C20.524 7.98381 22.1794 8.25904 23.6186 8.9781C25.3492 9.83326 26.7518 11.3303 27.4911 13.1137C28.133 14.6392 28.2904 16.3627 27.935 17.9786C27.5582 19.7234 26.5852 21.3332 25.2131 22.4758C24.0258 23.4761 22.543 24.119 21.0023 24.309C19.4027 24.5131 17.7442 24.2226 16.3091 23.4853C14.612 22.622 13.2379 21.1422 12.5056 19.3842C11.8068 17.7328 11.689 15.8468 12.1623 14.1182C12.5899 12.5318 13.5161 11.0845 14.7765 10.0303C15.9496 9.0431 17.41 8.40123 18.9304 8.1981ZM19.033 9.82209C17.6213 10.0313 16.2878 10.727 15.3077 11.764C14.1072 12.999 13.4389 14.7316 13.506 16.4531C13.5486 18.0151 14.1844 19.5497 15.2539 20.6883C16.3447 21.8613 17.8843 22.6047 19.4819 22.7256C20.9211 22.8454 22.3958 22.4626 23.5962 21.6592C24.8079 20.8599 25.7341 19.6391 26.1779 18.2569C26.637 16.8604 26.5974 15.3095 26.0713 13.9374C25.5259 12.4901 24.4422 11.2561 23.0783 10.5279C21.8524 9.86474 20.4102 9.6149 19.033 9.82209Z" fill="white"/>
<path d="M19.1649 12.3033C19.1588 11.8381 19.498 11.3618 19.9946 11.377C20.4943 11.3567 20.8386 11.833 20.8345 12.3002C21.8603 12.6445 22.5834 13.7353 22.4108 14.818C22.2981 15.3837 21.5292 15.6345 21.1037 15.2466C20.7858 15.015 20.8417 14.5935 20.7604 14.2543C20.5918 13.783 19.9733 13.717 19.567 13.8877C19.1222 14.0908 19.0531 14.7824 19.4655 15.0546C20.1652 15.4873 20.9777 15.73 21.6308 16.2398C22.4067 16.8858 22.6576 18.0639 22.2127 18.9709C21.9507 19.5538 21.4256 19.9753 20.8345 20.1957C20.8396 20.6619 20.4984 21.1392 19.9997 21.123C19.5031 21.1392 19.1588 20.6659 19.1659 20.1998C18.4285 19.9286 17.811 19.3141 17.6333 18.5372C17.55 18.132 17.4708 17.6241 17.7988 17.3032C18.1157 16.966 18.716 16.9934 19.0003 17.3591C19.2786 17.6566 19.0887 18.1299 19.3477 18.4336C19.5701 18.7159 19.9733 18.7241 20.2973 18.6611C20.6954 18.5687 20.929 18.0852 20.7523 17.7145C20.6355 17.4312 20.3237 17.3266 20.0738 17.1925C19.5823 16.9376 19.0694 16.7202 18.5961 16.4298C17.7481 15.8895 17.354 14.756 17.677 13.8044C17.8933 13.0965 18.4793 12.5531 19.1649 12.3033Z" fill="white"/>
<path d="M8.87895 16.2302C9.36036 15.959 10.0215 16.3196 10.053 16.87C10.1068 17.2611 9.82653 17.5982 9.48426 17.7435C7.14325 18.9135 4.80122 20.0814 2.46223 21.2545C3.41286 22.2041 4.36348 23.1557 5.31614 24.1033C7.06809 23.2258 8.82106 22.3503 10.57 21.4688C10.7761 21.3703 11.0077 21.2789 11.2382 21.3418C11.675 21.4282 11.9736 21.9146 11.8456 22.3432C11.7806 22.65 11.5013 22.8318 11.2393 22.9607C9.81637 23.6686 8.3945 24.3786 6.97465 25.0925C11.2413 27.2294 15.509 29.3622 19.7776 31.4961C24.0463 29.3612 28.317 27.2294 32.5847 25.0925C31.1831 24.3918 29.7836 23.6869 28.3769 22.9963C28.121 22.8663 27.8275 22.7241 27.7249 22.4346C27.5421 22.0172 27.795 21.4871 28.2307 21.3611C28.5089 21.2575 28.7954 21.3804 29.0442 21.5033C30.7707 22.3768 32.5075 23.2309 34.235 24.1013C35.1928 23.1578 36.1393 22.2031 37.091 21.2525C34.7256 20.0713 32.3632 18.885 29.9979 17.7049C29.552 17.5271 29.3448 16.9472 29.6068 16.5369C29.8252 16.1439 30.3604 16.0372 30.7382 16.2617C33.3799 17.5789 36.0195 18.9023 38.6622 20.2196C38.8957 20.3384 39.1425 20.4968 39.2238 20.7629C39.3426 21.0768 39.2218 21.4282 38.9861 21.6526C37.8436 22.8013 36.6929 23.9439 35.5493 25.0925C36.7071 26.2615 37.8821 27.4122 39.0318 28.5893C39.4279 28.96 39.3 29.675 38.8043 29.8914C37.615 30.5058 36.4075 31.0868 35.2111 31.689C35.21 35.6875 35.2121 39.6861 35.21 43.6836C35.2405 44.0614 35.0191 44.4138 34.6718 44.558C30.8337 46.4796 26.9936 48.3971 23.1556 50.3176C22.0689 50.8386 21.0157 51.4328 19.9066 51.905H19.6486C18.9235 51.6186 18.2481 51.2225 17.5453 50.8884C13.2989 48.7647 9.05059 46.6431 4.80528 44.5174C4.48333 44.3732 4.31473 44.0238 4.33606 43.6815C4.33505 39.684 4.33708 35.6865 4.33606 31.689C3.18739 31.1081 2.03466 30.5343 0.881921 29.9614C0.650359 29.8446 0.408641 29.6893 0.325359 29.4293C0.201453 29.1124 0.321296 28.7569 0.561999 28.5325C1.70762 27.3848 2.8563 26.2402 4.0009 25.0925C2.87153 23.9611 1.74216 22.8297 0.611765 21.7003C0.379187 21.484 0.211609 21.1641 0.302 20.8411C0.358875 20.5395 0.621921 20.3465 0.881921 20.2226C3.55098 18.9003 6.20989 17.5525 8.87895 16.2302ZM2.45919 28.9296C6.81926 31.1162 11.1864 33.2886 15.5455 35.4773C16.5053 34.5328 17.4539 33.5781 18.4045 32.6254C14.0424 30.4439 9.67926 28.2623 5.31614 26.0818C4.35841 27.0253 3.41387 27.982 2.45919 28.9296ZM21.1497 32.6285C22.1044 33.5761 23.05 34.5318 24.0047 35.4783C28.3647 33.2957 32.7268 31.1162 37.0879 28.9346C36.1383 27.983 35.1877 27.0314 34.235 26.0828C29.875 28.2684 25.5098 30.4439 21.1497 32.6285ZM5.96208 32.4995C5.96106 36.0918 5.96106 39.685 5.96106 43.2783C10.2957 45.4416 14.6284 47.6089 18.9611 49.7753C18.9611 44.6393 18.9611 39.5043 18.9611 34.3682C18.0825 35.2417 17.2132 36.1232 16.3357 36.9967C16.0828 37.2821 15.6481 37.3694 15.3129 37.1795C12.195 35.6215 9.08106 34.0554 5.96208 32.4995ZM24.3063 37.1429C23.9813 37.3379 23.5334 37.3268 23.2643 37.0393C22.3675 36.1537 21.4829 35.2549 20.5871 34.3672C20.585 39.5053 20.5861 44.6423 20.5871 49.7793C24.9197 47.613 29.2544 45.4487 33.5861 43.2773C33.5861 39.6861 33.5861 36.0948 33.5861 32.5036C30.4925 34.0504 27.3999 35.5971 24.3063 37.1429Z" fill="white"/>
</svg>
