<svg width="28" height="34" viewBox="0 0 28 34" fill="none" xmlns="http://www.w3.org/2000/svg">
<path d="M6.53996 0H21.5464C21.7762 0.0604297 21.9256 0.255 22.0883 0.413711C23.9477 2.27441 25.8084 4.13445 27.6684 5.99449C27.7913 6.10805 27.8696 6.26609 27.859 6.43609C27.861 13.343 27.859 20.2493 27.8597 27.1562C27.8444 27.6124 27.9095 28.0805 27.7787 28.5248C27.5881 29.1836 27.0269 29.7188 26.3576 29.8702C26.088 29.9373 25.8084 29.926 25.5328 29.9286C25.5793 30.5562 25.4305 31.2282 24.9611 31.6758C24.5128 32.1486 23.8361 32.306 23.2039 32.2529C23.1302 32.6818 22.9569 33.1035 22.6428 33.4123C22.3314 33.7404 21.9004 33.9256 21.4594 34H1.89683C1.57742 33.9436 1.25867 33.8473 0.991717 33.6573C0.455154 33.2961 0.125115 32.6566 0.140388 32.0098C0.141053 29.6604 0.137732 27.3116 0.141717 24.9621C0.121795 24.6825 0.373474 24.4255 0.654373 24.4435C0.925974 24.4441 1.15441 24.6991 1.13449 24.9688C1.14113 27.3375 1.13051 29.7068 1.1398 32.0755C1.14179 32.5829 1.60531 33.0205 2.11066 33.0032C8.35484 33.0052 14.599 33.0026 20.8432 33.0046C21.1334 32.9999 21.4462 33.0371 21.7078 32.8837C21.9535 32.7575 22.1082 32.5145 22.1906 32.2582C21.2303 32.2509 18.2701 32.2602 17.3099 32.2542C17.106 32.2648 16.8968 32.1579 16.8125 31.9673C16.6518 31.6625 16.9035 31.2481 17.2514 31.2621C18.6891 31.2541 22.1275 31.2641 23.5659 31.2581C23.9351 31.2607 24.295 31.0363 24.4457 30.6976C24.5619 30.4566 24.5387 30.183 24.5281 29.924C18.6498 29.932 12.7715 29.9246 6.89324 29.9273C6.49281 29.9373 6.08375 29.8563 5.74109 29.6418C5.1607 29.2971 4.7875 28.6357 4.79746 27.9597C4.79679 21.3841 4.79613 14.8086 4.79812 8.23305C4.77953 7.95613 5.02191 7.69848 5.30148 7.71109C5.5764 7.70645 5.81148 7.96277 5.79156 8.2357C5.79488 14.6532 5.79222 21.07 5.79289 27.4869C5.80019 27.8136 5.7464 28.1715 5.93168 28.463C6.11164 28.7718 6.47156 28.9478 6.82484 28.9312C13.1786 28.9299 19.5323 28.9325 25.8854 28.9299C26.1896 28.9319 26.493 28.7871 26.673 28.5394C26.8304 28.3375 26.8762 28.0752 26.8656 27.8249C26.8623 20.8482 26.8649 13.8716 26.8643 6.89496C25.6975 6.89098 24.5307 6.89363 23.364 6.89363C23.0505 6.89164 22.7311 6.90957 22.4257 6.82523C21.7935 6.66453 21.2636 6.16316 21.065 5.54227C20.9508 5.21289 20.968 4.85961 20.968 4.51629C20.9687 3.34289 20.9687 2.16949 20.9687 0.996758C16.3668 0.99543 11.7648 0.997422 7.16285 0.99543C6.87133 1.00008 6.55722 0.962891 6.29359 1.11496C5.97683 1.28297 5.7816 1.63625 5.79355 1.99285C5.79222 3.29707 5.79222 8.60195 5.79422 9.90684C5.79355 10.0596 5.78824 10.2289 5.68066 10.3498C5.52062 10.5583 5.18992 10.5955 4.98738 10.4275C4.84859 10.3245 4.78949 10.1486 4.79679 9.98055C4.79547 9.09535 4.79879 4.20949 4.79613 3.32363C4.50394 3.32562 4.18586 3.29707 3.9282 3.46441C3.63468 3.63707 3.45738 3.97309 3.46535 4.31242C3.46269 12.924 3.46668 21.5349 3.46336 30.1464C3.45605 30.3961 3.49324 30.6611 3.65195 30.8636C3.85515 31.1545 4.22172 31.284 4.56769 31.2607C8.5959 31.2581 12.6241 31.2607 16.653 31.2594C16.8303 31.2601 17.0089 31.2488 17.1862 31.2707C17.4585 31.3092 17.6491 31.6134 17.5727 31.8777C17.5196 32.1094 17.2871 32.2668 17.0534 32.2542C12.8911 32.2582 8.72871 32.2542 4.56636 32.2562C4.1666 32.2661 3.75754 32.1851 3.41488 31.972C2.83117 31.626 2.4573 30.9606 2.46926 30.2812C2.46926 21.8789 2.4666 13.4758 2.47058 5.07344C2.16711 5.06281 1.83441 5.04621 1.57277 5.22816C1.27793 5.41277 1.11922 5.7634 1.13582 6.10672C1.13648 11.6397 1.13648 20.1733 1.13582 25.707C1.16636 25.9885 0.939255 26.2681 0.649724 26.2668C0.353552 26.2827 0.109178 25.9991 0.140388 25.7103C0.140388 20.1521 0.13906 11.5945 0.141052 6.03633C0.131756 5.36031 0.506287 4.69957 1.08734 4.35492C1.49773 4.09328 1.99711 4.05277 2.47125 4.07336C2.54961 3.49828 2.86769 2.95641 3.36109 2.64363C3.77945 2.35344 4.30207 2.30562 4.79613 2.32754C4.7875 1.92578 4.79347 1.50676 4.97609 1.13887C5.25234 0.517305 5.87258 0.0929687 6.53996 0ZM21.9668 1.70598C21.9628 2.77445 21.9641 3.84293 21.9661 4.91141C21.9429 5.4234 22.3871 5.89156 22.8991 5.89422C23.9855 5.90086 25.0713 5.89422 26.157 5.89754C24.7652 4.4957 23.3673 3.09984 21.9668 1.70598Z" fill="white"/>
<path d="M9.5745 10.7864C14.0164 10.7605 18.461 10.7837 22.9036 10.7744C23.1964 10.7359 23.4886 10.9829 23.4707 11.2838C23.4733 11.5826 23.1785 11.8044 22.893 11.7718C18.5128 11.7712 14.1326 11.7718 9.75313 11.7712C9.49481 11.7964 9.22653 11.6165 9.192 11.3515C9.14352 11.0998 9.32348 10.8348 9.5745 10.7864Z" fill="white"/>
<path d="M9.49811 14.5005C9.59706 14.4613 9.70596 14.4653 9.81088 14.462C14.1937 14.466 18.5765 14.46 22.9593 14.4653C23.223 14.4533 23.4667 14.6771 23.4706 14.9428C23.4892 15.215 23.2462 15.4674 22.9733 15.4574C18.5652 15.4621 14.1565 15.4574 9.74846 15.4601C9.52733 15.4806 9.29557 15.3558 9.21854 15.142C9.11628 14.8976 9.25108 14.5928 9.49811 14.5005Z" fill="white"/>
<path d="M9.58022 18.1681C9.74624 18.1455 9.91491 18.1568 10.0823 18.1554C14.3555 18.1554 18.6294 18.1554 22.9027 18.1554C23.1557 18.1295 23.418 18.2989 23.4618 18.5572C23.5302 18.8547 23.2706 19.1681 22.9638 19.1502C18.5371 19.1522 14.1105 19.1529 9.68381 19.1495C9.41952 19.1588 9.18045 18.9231 9.18577 18.6588C9.17846 18.4284 9.35378 18.2106 9.58022 18.1681Z" fill="white"/>
</svg>
