<svg width="82" height="89" viewBox="0 0 82 89" fill="none" xmlns="http://www.w3.org/2000/svg">
<path d="M54.5834 14.6809L54.5966 15.1673H55.0832H77.833C77.8331 15.1673 77.8331 15.1673 77.8332 15.1673C78.5299 15.1676 79.2005 15.4322 79.7096 15.9079C80.2187 16.3836 80.5283 17.0347 80.5758 17.7299C80.6233 18.425 80.4051 19.1123 79.9654 19.6527C79.5292 20.189 78.9071 20.5411 78.2232 20.6394L77.816 20.6673H74.3838H73.9306L73.8862 21.1184L68.3396 77.5382C68.0733 80.2329 66.8579 82.7453 64.9104 84.6267C62.9646 86.5064 60.4146 87.634 57.715 87.8085L56.9683 87.834H25.0228C22.3138 87.8339 19.6931 86.8705 17.629 85.116C15.5669 83.3631 14.1946 80.9346 13.7569 78.2639L13.6593 77.5257L8.1091 21.1184L8.06472 20.6673H7.6115H4.1665C3.50199 20.6673 2.85994 20.4266 2.35911 19.9898C1.86238 19.5566 1.5379 18.9595 1.44445 18.3074L1.41655 17.9009C1.42051 17.2422 1.66079 16.6066 2.09398 16.1099C2.52721 15.6132 3.1243 15.2887 3.77639 15.1953L4.18364 15.1673H26.9165H27.4165V14.6673C27.4165 11.0648 28.8476 7.60982 31.395 5.06245C33.9423 2.51508 37.3973 1.08398 40.9998 1.08398V0.613396L40.9999 1.08398C44.4694 1.08376 47.8075 2.4112 50.3295 4.794C52.8496 7.17512 54.3638 10.4297 54.5619 13.891L54.5834 14.6809ZM14.1418 20.6673H13.5902L13.6442 21.2163L19.1345 76.9946C19.2673 78.3541 19.8664 79.6257 20.8301 80.5937C21.7938 81.5618 23.0628 82.1665 24.4217 82.3054L24.4353 82.3068L24.4489 82.3074L24.9992 82.3334L25.011 82.334H25.0228H56.9768C59.817 82.334 62.2262 80.3223 62.7754 77.5905L62.7774 77.5805L62.779 77.5704L62.8657 77.0244L62.868 77.0097L62.8694 76.9949L68.3468 21.2162L67.8535 21.1677V21.1673V20.6673H67.8492H67.3959H14.1418ZM32.9442 14.0022L32.9434 14.0123L32.9429 14.0225L32.9169 14.6465L32.8952 15.1673H33.4165H48.5832H49.0832V14.6673C49.0832 12.5235 48.2315 10.4675 46.7156 8.95154C45.1997 7.43562 43.1437 6.58398 40.9998 6.58398V7.08398L40.9998 6.58398C38.9712 6.58406 37.0167 7.34692 35.5244 8.72112C34.0322 10.0953 33.1111 11.9804 32.9442 14.0022ZM48.5832 33.584C49.2477 33.584 49.8897 33.8247 50.3906 34.2615C50.8873 34.6947 51.2118 35.2918 51.3052 35.9439L51.3332 36.3511V66.6672C51.3332 66.6672 51.3332 66.6673 51.3332 66.6673C51.3329 67.364 51.0682 68.0347 50.5926 68.5437C50.1169 69.0529 49.4657 69.3624 48.7706 69.4099C48.0755 69.4574 47.3882 69.2393 46.8477 68.7996C46.3115 68.3633 45.9594 67.7412 45.8611 67.0574L45.8332 66.6502V36.334C45.8332 35.6046 46.1229 34.9052 46.6386 34.3894C47.1544 33.8737 47.8538 33.584 48.5832 33.584ZM33.4165 33.584C34.081 33.584 34.7231 33.8247 35.2239 34.2615C35.7206 34.6947 36.0451 35.2918 36.1386 35.9439L36.1665 36.3511V66.6672C36.1665 66.6672 36.1665 66.6673 36.1665 66.6673C36.1663 67.364 35.9016 68.0347 35.4259 68.5437C34.9503 69.0529 34.2991 69.3624 33.6039 69.4099C32.9088 69.4574 32.2216 69.2393 31.6811 68.7996C31.1448 68.3633 30.7927 67.7412 30.6944 67.0574L30.6665 66.6502V36.334C30.6665 35.6046 30.9562 34.9052 31.472 34.3894C31.9877 33.8737 32.6872 33.584 33.4165 33.584Z" fill="#D0342C" stroke="white"/>
</svg>
