<svg width="47" height="47" viewBox="0 0 47 47" fill="none" xmlns="http://www.w3.org/2000/svg">
<path d="M19.1452 3.09356C20.3615 2.03514 21.9798 1.45407 23.5918 1.49629C25.1294 1.52567 26.6477 2.11959 27.7961 3.14037C28.9729 4.16758 29.7615 5.62807 29.9698 7.17668C30.0828 8.02489 30.0194 8.88227 30.0378 9.73414C30.0258 9.97649 30.2021 10.1628 30.3021 10.3675C30.4802 10.6714 30.5307 11.0248 30.5812 11.3672C31.8361 10.2923 33.5059 9.71487 35.1573 9.80391C36.3864 9.85348 37.5963 10.2693 38.6052 10.9716C39.9013 11.8703 40.8615 13.2454 41.2407 14.7784C41.517 15.8276 41.4288 16.9209 41.4417 17.994C41.4188 18.2364 41.5803 18.4301 41.6877 18.6311C42.166 19.4637 42.0191 20.5827 41.3857 21.2941C41.0112 21.7504 40.454 22.0065 39.8812 22.1056C39.7581 22.5664 39.6553 23.0373 39.4341 23.4642C39.1202 24.1508 38.6162 24.7255 38.0571 25.224C38.059 25.6407 38.059 26.0584 38.0581 26.4761C40.0409 27.2481 42.0274 28.01 44.0102 28.782C45.7268 29.4778 46.9871 31.2174 47 33.0864V40.2313C46.9596 40.5645 46.7044 40.8748 46.3528 40.884C45.9627 40.9189 45.6139 40.5682 45.6304 40.1808C45.5946 39.1013 45.6616 34.0199 45.5973 32.9413C45.5312 31.6479 44.616 30.4757 43.4135 30.0268C42.2945 29.5972 41.1801 29.1584 40.0602 28.7315C39.5599 29.7422 39.0531 30.7501 38.551 31.7599C38.395 32.0968 38.1021 32.3869 37.7212 32.4419C37.4036 32.5154 37.1006 32.3685 36.8234 32.2308C36.7334 32.3648 36.6435 32.4979 36.5535 32.632C37.0538 35.6135 37.5605 38.5933 38.0654 41.5739C38.1398 41.9319 38.0893 42.3266 37.8378 42.6075C37.3907 43.1262 36.9143 43.62 36.4599 44.1332C38.1453 44.135 39.8297 44.1341 41.5142 44.1341C41.5142 40.8671 41.5179 37.6 41.5124 34.333C41.5161 34.0879 41.5179 33.8106 41.6969 33.6206C41.9383 33.3315 42.4258 33.3186 42.6828 33.594C42.8893 33.7822 42.8893 34.0796 42.8948 34.3375C42.8893 37.6028 42.8939 40.868 42.8921 44.1341C43.7908 44.1176 44.6922 44.1681 45.5891 44.1112C45.6166 43.9753 45.6221 43.8358 45.6258 43.6981C45.6249 42.2881 45.6157 40.8781 45.6276 39.4681C45.6038 39.0706 45.9517 38.697 46.3574 38.742C46.6906 38.7466 46.9302 39.032 47 39.3377V44.1139C46.9486 44.9025 46.228 45.5515 45.4376 45.5101C38.4592 45.5138 31.4817 45.5092 24.5043 45.5129C24.1554 45.5239 23.8167 45.4257 23.5 45.2889C23.1824 45.4257 22.8446 45.5248 22.4957 45.5129C15.5173 45.5092 8.53895 45.5138 1.56055 45.5101C0.772012 45.5505 0.0541602 44.9043 0 44.1185V33.09C0.0146875 31.591 0.818828 30.1599 2.03973 29.3062C2.63549 28.8628 3.35334 28.6471 4.03447 28.3763C5.66846 27.741 7.30428 27.1131 8.93643 26.4751C8.93551 26.0878 8.93551 25.7013 8.93734 25.3148C7.92115 24.5309 7.26205 23.3596 7.01787 22.1084C6.49004 22.0046 5.96588 21.7972 5.59227 21.3969C4.94969 20.7534 4.72478 19.7097 5.09656 18.8725C5.21773 18.5806 5.48119 18.3318 5.44723 17.9922C5.45273 16.8851 5.38021 15.7542 5.68314 14.6756C6.24678 12.4954 8.0258 10.6842 10.1913 10.0692C10.6696 9.92967 11.146 10.452 10.9881 10.9183C10.9009 11.2727 10.5199 11.3938 10.2197 11.5122C8.62799 12.086 7.38506 13.5042 6.98666 15.1437C6.79572 15.8956 6.81775 16.6777 6.82418 17.4469C6.87008 17.4322 6.96187 17.4047 7.00777 17.39C7.13996 17.1871 7.26756 16.9631 7.48971 16.8475C7.77978 16.6832 8.12402 16.7006 8.44531 16.6988C10.34 16.7548 12.2374 16.2104 13.8457 15.2153C14.1505 15.0317 14.5039 14.8573 14.8702 14.9436C15.3264 15.0372 15.6082 15.4421 15.9148 15.756C16.3885 16.2949 16.9806 16.7704 17.2119 17.4763C17.3285 16.3903 17.2459 15.2502 16.7851 14.2469C16.2021 12.9397 15.0556 11.8877 13.6878 11.4535C13.4244 11.3534 13.1058 11.2791 12.958 11.0129C12.7818 10.72 12.8708 10.3042 13.1563 10.1142C13.3436 9.97373 13.5942 9.97557 13.8108 10.0371C14.727 10.2895 15.5779 10.7549 16.3077 11.3617C16.361 11.0202 16.416 10.6668 16.6061 10.3694C16.6951 10.1931 16.8466 10.0325 16.8475 9.8241C16.8769 8.81342 16.7777 7.78897 16.9843 6.79114C17.2652 5.36278 18.0408 4.0409 19.1452 3.09356ZM20.8342 3.57274C19.6298 4.2658 18.7229 5.46008 18.3888 6.8095C18.1905 7.57967 18.2217 8.38289 18.2364 9.17051C18.52 9.05485 18.5971 8.71703 18.8569 8.57016C19.2562 8.3067 19.7538 8.41869 20.2017 8.40584C21.9835 8.38198 23.7524 7.8468 25.2643 6.9068C25.5122 6.7636 25.7766 6.60754 26.0749 6.62315C26.4292 6.61764 26.7404 6.82785 26.9699 7.0803C27.3977 7.54295 27.8356 7.99551 28.2459 8.47286C28.4332 8.6693 28.4726 8.95295 28.6415 9.16317C28.7012 8.12311 28.6801 7.04266 28.2542 6.07237C27.7034 4.75692 26.5972 3.68473 25.2561 3.19453C23.8231 2.65752 22.1524 2.79338 20.8342 3.57274ZM19.7446 9.7727C19.7226 10.8311 19.7345 11.8895 19.7372 12.9489C19.7382 13.7796 20.0108 14.6131 20.5396 15.2594C21.1629 16.0525 22.1331 16.5491 23.1365 16.6235C24.3317 16.7603 25.5682 16.2389 26.3228 15.3062C26.8735 14.6508 27.148 13.7943 27.1544 12.9434C27.1618 11.7298 27.1563 10.5163 27.1563 9.3027C26.7753 8.89512 26.3925 8.48846 26.018 8.07446C24.1417 9.20998 21.9468 9.86082 19.7446 9.7727ZM17.7012 11.4737C17.6975 11.8859 17.9977 12.2145 18.3493 12.388C18.3566 11.7711 18.3557 11.1533 18.3493 10.5355C18.005 10.7246 17.6764 11.0487 17.7012 11.4737ZM28.5387 10.4951C28.5314 11.1249 28.5332 11.7555 28.5378 12.3852C28.9224 12.2062 29.2355 11.8244 29.1859 11.3801C29.1813 10.978 28.8775 10.6677 28.5387 10.4951ZM32.0784 11.9712C30.9199 12.6946 30.0653 13.8898 29.7679 15.2236C29.5953 15.9571 29.6329 16.7162 29.6394 17.4644C29.912 17.3762 29.9754 17.0614 30.1993 16.9099C30.4857 16.685 30.8658 16.6905 31.2109 16.6969C33.1552 16.7704 35.0985 16.1911 36.7426 15.1667C37.0336 14.9877 37.3843 14.8573 37.7276 14.9574C38.0406 15.0272 38.271 15.2704 38.4831 15.4944C38.8778 15.9277 39.2909 16.3435 39.6663 16.7942C39.8362 16.9879 39.8968 17.2486 40.0464 17.457C40.107 16.4289 40.0868 15.3613 39.6709 14.4002C39.1119 13.0352 37.9497 11.929 36.5508 11.4572C35.0848 10.9413 33.3884 11.1322 32.0784 11.9712ZM18.0757 13.7356C18.2584 14.1881 18.4181 14.6517 18.5063 15.1327C18.6981 16.1076 18.61 17.1064 18.6338 18.0923C18.6302 18.3383 18.822 18.52 18.9349 18.7211C19.404 18.5384 19.8749 18.3594 20.3431 18.1721C20.3404 17.7838 20.3413 17.3964 20.3422 17.0081C19.3196 16.2306 18.6651 15.0529 18.4236 13.8017C18.307 13.7796 18.1914 13.7576 18.0757 13.7356ZM28.4708 13.7989C28.256 15.0171 27.6015 16.1315 26.6523 16.9218C26.6532 17.3386 26.6532 17.7544 26.6505 18.1712C27.0883 18.3502 27.5345 18.5099 27.9696 18.6954C28.0761 18.5329 28.2532 18.3878 28.2532 18.1795C28.2817 17.2266 28.1945 16.2655 28.3496 15.3191C28.4313 14.772 28.614 14.2469 28.8086 13.731C28.7242 13.7484 28.5553 13.7824 28.4708 13.7989ZM8.32506 18.0812C8.32506 19.0938 8.32414 20.1063 8.32506 21.1188C8.32781 21.7247 8.42787 22.3397 8.70234 22.885C9.10809 23.7277 9.85715 24.3959 10.7393 24.7081C11.7427 25.0707 12.9066 25.0202 13.8457 24.4969C14.7967 23.9819 15.4935 23.0208 15.6807 21.9541C15.7964 21.2501 15.7377 20.534 15.7514 19.8235C15.7413 19.0938 15.7707 18.3631 15.7404 17.6342C15.4109 17.1789 14.9739 16.8007 14.604 16.3747C12.7295 17.524 10.5282 18.151 8.32506 18.0812ZM31.1366 18.0812C31.1403 19.1543 31.1283 20.2274 31.1421 21.2996C31.1568 22.3167 31.5937 23.3247 32.3593 23.9994C33.2011 24.7659 34.4064 25.0716 35.5208 24.8926C36.6517 24.7117 37.6624 23.9498 38.1682 22.9263C38.4712 22.3415 38.5666 21.6751 38.5639 21.0242C38.5639 19.8869 38.5602 18.7495 38.5657 17.6131C38.1857 17.1954 37.7992 16.7841 37.4118 16.3738C35.5401 17.5268 33.3379 18.1492 31.1366 18.0812ZM21.7173 17.7397C21.7458 18.0032 21.6338 18.3217 21.8311 18.5393C22.3865 19.225 22.941 19.9107 23.4972 20.5956C24.0535 19.9107 24.6089 19.2259 25.1643 18.5411C25.3616 18.3126 25.2487 17.9848 25.2744 17.7104C24.1306 18.118 22.8703 18.1069 21.7173 17.7397ZM39.9445 18.7945C39.9381 19.4251 39.9371 20.0567 39.9445 20.6873C40.3053 20.5093 40.61 20.165 40.5935 19.7409C40.6119 19.315 40.3034 18.9735 39.9445 18.7945ZM6.30186 19.6473C6.2376 20.1008 6.54971 20.5028 6.94443 20.6855C6.94902 20.0677 6.9527 19.449 6.94168 18.8312C6.63967 19.0111 6.33307 19.2709 6.30186 19.6473ZM17.133 18.7945C17.1265 19.4261 17.1265 20.0567 17.133 20.6883C17.4616 20.5184 17.759 20.2219 17.7755 19.8318C17.8315 19.3829 17.5304 18.9735 17.133 18.7945ZM29.107 19.7363C29.0868 20.1604 29.3924 20.5102 29.755 20.6873C29.7624 20.0696 29.7615 19.4518 29.755 18.834C29.4218 19.0194 29.1014 19.326 29.107 19.7363ZM19.6308 19.9291C20.0806 20.8333 20.5304 21.7366 20.982 22.6389C21.486 22.2754 21.9945 21.9183 22.5012 21.5576C21.9385 20.8627 21.3758 20.1659 20.8104 19.4729C20.4175 19.6253 20.0237 19.7758 19.6308 19.9291ZM26.1832 19.4692C25.6214 20.1669 25.0523 20.8599 24.496 21.5622C25.0046 21.9183 25.5104 22.2773 26.0143 22.6399C26.4669 21.7366 26.9167 20.8333 27.3656 19.9291C26.9718 19.7749 26.577 19.6225 26.1832 19.4692ZM17.0641 22.1084C16.8502 23.3265 16.1875 24.4336 15.2447 25.2285C15.2484 25.6471 15.2438 26.0648 15.2511 26.4834C17.2055 27.2288 19.1525 27.9925 21.1041 28.7434C21.3538 27.2747 21.6026 25.805 21.8504 24.3363C21.7577 24.1986 21.6659 24.06 21.5741 23.9223C21.3455 24.0462 21.1041 24.1784 20.8351 24.1591C20.4303 24.1518 20.0604 23.8892 19.8887 23.5285C19.4894 22.7399 19.0983 21.9468 18.7027 21.1564C18.296 21.665 17.7076 22.0065 17.0641 22.1084ZM27.1076 23.5294C26.9249 23.9177 26.5063 24.1876 26.0731 24.1573C25.8362 24.1499 25.6269 24.0306 25.4231 23.9241C25.3304 24.0609 25.2386 24.1977 25.1468 24.3354C25.3938 25.8059 25.6435 27.2756 25.8931 28.7462C27.8438 27.9925 29.7918 27.2316 31.7443 26.4816C31.7489 26.0924 31.7452 25.7031 31.7516 25.3139C31.3936 24.977 31.0071 24.6631 30.7363 24.2463C30.248 23.6294 29.9625 22.8767 29.823 22.1074C29.2144 22.012 28.6571 21.7035 28.2505 21.2409C27.8686 22.0037 27.4932 22.7693 27.1076 23.5294ZM22.6913 23.1135C22.7748 23.2402 22.8602 23.3669 22.9446 23.4945C23.3137 23.4945 23.6827 23.4945 24.0526 23.4945C24.1371 23.3669 24.2215 23.2402 24.306 23.1135C24.037 22.9208 23.7671 22.7298 23.4963 22.5398C23.2274 22.7298 22.9593 22.9217 22.6913 23.1135ZM23.1558 24.8715C22.8969 26.4054 22.638 27.9393 22.3782 29.4732C22.8051 29.8377 23.1861 30.2507 23.5 30.718C23.813 30.2517 24.1958 29.8413 24.619 29.4732C24.3601 27.9393 24.1004 26.4063 23.8415 24.8724C23.6129 24.8715 23.3843 24.8715 23.1558 24.8715ZM33.1249 26.0382C33.124 26.2594 33.124 26.4816 33.1249 26.7028C33.7188 27.4344 34.31 28.167 34.903 28.8986C35.4464 28.2294 35.9862 27.5583 36.5324 26.8919C36.7747 26.6606 36.6591 26.3053 36.6802 26.0097C35.5373 26.4155 34.277 26.4063 33.1249 26.0382ZM10.429 26.846C10.9826 27.5299 11.537 28.2138 12.0915 28.8986C12.6845 28.167 13.2775 27.4353 13.8696 26.7037C13.8696 26.4724 13.8696 26.2411 13.8696 26.0097C12.7286 26.4146 11.4682 26.4109 10.3207 26.0364C10.3363 26.3044 10.2243 26.6266 10.429 26.846ZM8.22959 28.2239C8.66471 29.1345 9.1292 30.0314 9.57441 30.9374C10.0821 30.5785 10.5897 30.2195 11.0955 29.8597C10.5282 29.1639 9.97281 28.4589 9.39725 27.7695C9.01078 27.9283 8.62065 28.0788 8.22959 28.2239ZM13.0875 29.8569C13.5942 30.2177 14.1028 30.5775 14.6104 30.9383C15.0611 30.0359 15.51 29.1327 15.9607 28.2312C15.5669 28.077 15.1713 27.9246 14.7765 27.7722C14.2129 28.4662 13.6502 29.1611 13.0875 29.8569ZM31.0356 28.2312C31.4872 29.1327 31.9361 30.0359 32.3869 30.9383C32.8936 30.5785 33.4012 30.2205 33.907 29.8588C33.3434 29.163 32.7816 28.4662 32.217 27.7713C31.8232 27.9246 31.4294 28.077 31.0356 28.2312ZM37.5816 27.7741C37.0253 28.4726 36.459 29.162 35.899 29.8569C36.4057 30.2177 36.9134 30.5785 37.4228 30.9374C37.8717 30.0369 38.3188 29.1345 38.7732 28.2349C38.3784 28.0742 37.981 27.9209 37.5816 27.7741ZM3.92248 29.8973C3.25787 30.1149 2.62998 30.4766 2.18293 31.0228C1.60369 31.6736 1.36502 32.5567 1.37695 33.415C1.38063 36.9372 1.36961 40.4595 1.38246 43.9817C1.35217 44.1451 1.54219 44.1286 1.645 44.135C2.46566 44.1369 3.28725 44.1332 4.10791 44.1341C4.10975 40.8065 4.10424 37.4779 4.11066 34.1503C4.0666 33.7023 4.51182 33.2865 4.95611 33.4132C5.32789 33.4866 5.51975 33.8832 5.48578 34.2366C5.48486 37.5357 5.48486 40.8349 5.48578 44.1341C7.16842 44.1341 8.85197 44.135 10.5355 44.1341C10.1344 43.6917 9.73414 43.2483 9.33023 42.8095C9.17418 42.636 9.01354 42.4542 8.94652 42.2257C8.8483 41.9227 8.92816 41.6051 8.97682 41.3022C9.45875 38.4868 9.92783 35.6704 10.4098 32.855C10.5006 32.6072 10.284 32.4181 10.1729 32.2216C9.92691 32.3575 9.65795 32.4943 9.36695 32.4548C8.98232 32.4282 8.64635 32.1702 8.48295 31.8278C7.9643 30.7969 7.45023 29.7642 6.93617 28.7315C5.93008 29.1143 4.92766 29.5109 3.92248 29.8973ZM15.7221 31.7902C15.5605 32.1307 15.2447 32.4098 14.8592 32.4465C14.5544 32.4979 14.2707 32.3538 14.0036 32.229C13.9164 32.3685 13.8283 32.5071 13.7411 32.6466C14.2496 35.6291 14.7499 38.6125 15.2576 41.595C15.3292 41.9392 15.275 42.3211 15.0382 42.5928C14.5911 43.1179 14.1028 43.6063 13.6585 44.1341C15.3402 44.1332 17.0219 44.135 18.7036 44.1341C18.7055 40.8037 18.699 37.4742 18.7064 34.1448C18.6724 33.7344 19.0387 33.3397 19.4582 33.3975C19.8272 33.4233 20.0962 33.7803 20.0778 34.1393C20.0852 37.4706 20.0778 40.8028 20.0815 44.1341C20.9444 44.1277 21.8082 44.146 22.6711 44.1268C22.8611 44.1433 22.7941 43.8945 22.8134 43.7825C22.8088 40.5393 22.8124 37.2971 22.8115 34.0539C22.8106 33.4389 22.8427 32.8082 22.6546 32.2143C22.3626 31.2541 21.6292 30.4261 20.6892 30.0616C19.5436 29.6173 18.3979 29.174 17.2523 28.7297C16.7401 29.7486 16.2352 30.7712 15.7221 31.7902ZM26.3714 30.0378C25.4461 30.4105 24.6759 31.1779 24.3656 32.1335C24.1545 32.7522 24.1903 33.415 24.1885 34.0594C24.1866 37.2723 24.1921 40.4852 24.1857 43.6981C24.2041 43.8349 24.1508 44.0028 24.2472 44.1176C25.1358 44.158 26.0281 44.1213 26.9176 44.135C26.9231 40.8028 26.9139 37.4715 26.9222 34.1393C26.9038 33.784 27.1682 33.4278 27.5336 33.3985C27.9558 33.3351 28.334 33.7335 28.2936 34.1494C28.3001 37.4779 28.2945 40.8056 28.2964 44.1341C29.9799 44.1341 31.6626 44.135 33.3461 44.1341C32.9 43.6329 32.4392 43.1445 31.9958 42.6415C31.7369 42.3606 31.6571 41.9576 31.7397 41.5913C32.2501 38.6089 32.7449 35.6245 33.2589 32.643C33.1653 32.5025 33.0707 32.363 32.9762 32.2235C32.464 32.6154 31.636 32.4998 31.3367 31.9013C30.7933 30.8502 30.2792 29.7853 29.744 28.7297C28.6204 29.1657 27.4959 29.6017 26.3714 30.0378ZM11.2846 31.4157C11.37 31.5414 11.4553 31.6672 11.5407 31.7939C11.9116 31.7929 12.2824 31.7939 12.6533 31.7911C12.735 31.6635 12.8167 31.5368 12.8984 31.4101C12.6285 31.221 12.3604 31.0301 12.0933 30.8382C11.8225 31.0292 11.5536 31.222 11.2846 31.4157ZM34.0998 31.4065C34.1815 31.535 34.2632 31.6644 34.3449 31.7929C34.7157 31.7929 35.0866 31.7929 35.4575 31.7939C35.5419 31.6672 35.6273 31.5414 35.7127 31.4157C35.4419 31.221 35.172 31.0274 34.8984 30.8382C34.635 31.0319 34.3697 31.221 34.0998 31.4065ZM11.7528 33.1726C11.2616 36.0541 10.7705 38.9357 10.2895 41.819C10.8954 42.4726 11.4893 43.1372 12.0915 43.7954C12.6937 43.1299 13.306 42.4717 13.9008 41.7997C13.4042 38.9265 12.9259 36.0486 12.4357 33.1736C12.2081 33.1726 11.9804 33.1726 11.7528 33.1726ZM34.5615 33.1736C34.0722 36.0496 33.5912 38.9274 33.0964 41.8034C33.6931 42.4717 34.3008 43.1308 34.903 43.7954C35.5052 43.1372 36.101 42.4726 36.7077 41.8181C36.2267 38.9347 35.7356 36.0532 35.2445 33.1717C35.0168 33.1726 34.7892 33.1726 34.5615 33.1736Z" fill="white"/>
</svg>
