<svg width="25" height="25" viewBox="0 0 25 25" fill="none" xmlns="http://www.w3.org/2000/svg">
<path fill-rule="evenodd" clip-rule="evenodd" d="M22.3857 3.80392H14.7882V2.01367L2.29999 3.94117V20.8364L14.7882 22.9874V20.3339H22.3857C22.6158 20.3456 22.8412 20.2656 23.0125 20.1116C23.1838 19.9576 23.2872 19.742 23.3 19.5119V4.62517C23.287 4.39527 23.1836 4.17985 23.0123 4.02597C22.841 3.87209 22.6157 3.79226 22.3857 3.80392ZM22.5057 19.6484H14.7627L14.75 18.2317H16.6152V16.5817H14.7357L14.7267 15.6067H16.6152V13.9567H14.7125L14.7035 12.9817H16.6152V11.3317H14.6975V10.3567H16.6152V8.70667H14.6975V7.73167H16.6152V6.08167H14.6975V4.58167H22.5057V19.6484Z" fill="white"/>
<path d="M17.6652 6.08008H20.9075V7.73008H17.6652V6.08008ZM17.6652 8.70583H20.9075V10.3558H17.6652V8.70583ZM17.6652 11.3316H20.9075V12.9816H17.6652V11.3316ZM17.6652 13.9573H20.9075V15.6073H17.6652V13.9573ZM17.6652 16.5831H20.9075V18.2331H17.6652V16.5831Z" fill="white"/>
<path fill-rule="evenodd" clip-rule="evenodd" d="M5.56006 8.50628L7.16956 8.41403L8.18131 11.1958L9.37681 8.29928L10.9863 8.20703L9.03181 12.1565L10.9863 16.1158L9.28456 16.001L8.13556 12.983L6.98581 15.8863L5.42206 15.7483L7.23856 12.251L5.56006 8.50628Z" fill="black"/>
</svg>
