<svg width="16" height="16" viewBox="0 0 16 16" fill="none" xmlns="http://www.w3.org/2000/svg">
<mask id="path-1-inside-1_235_19990" fill="white">
<path d="M6 10.5C6 10.3674 6.05268 10.2402 6.14645 10.1464C6.24021 10.0527 6.36739 10 6.5 10H9.5C9.63261 10 9.75979 10.0527 9.85355 10.1464C9.94732 10.2402 10 10.3674 10 10.5C10 10.6326 9.94732 10.7598 9.85355 10.8536C9.75979 10.9473 9.63261 11 9.5 11H6.5C6.36739 11 6.24021 10.9473 6.14645 10.8536C6.05268 10.7598 6 10.6326 6 10.5ZM4 7.5C4 7.36739 4.05268 7.24021 4.14645 7.14645C4.24021 7.05268 4.36739 7 4.5 7H11.5C11.6326 7 11.7598 7.05268 11.8536 7.14645C11.9473 7.24021 12 7.36739 12 7.5C12 7.63261 11.9473 7.75979 11.8536 7.85355C11.7598 7.94732 11.6326 8 11.5 8H4.5C4.36739 8 4.24021 7.94732 4.14645 7.85355C4.05268 7.75979 4 7.63261 4 7.5ZM2 4.5C2 4.36739 2.05268 4.24021 2.14645 4.14645C2.24021 4.05268 2.36739 4 2.5 4H13.5C13.6326 4 13.7598 4.05268 13.8536 4.14645C13.9473 4.24021 14 4.36739 14 4.5C14 4.63261 13.9473 4.75979 13.8536 4.85355C13.7598 4.94732 13.6326 5 13.5 5H2.5C2.36739 5 2.24021 4.94732 2.14645 4.85355C2.05268 4.75979 2 4.63261 2 4.5Z"/>
</mask>
<path d="M6 10.5C6 10.3674 6.05268 10.2402 6.14645 10.1464C6.24021 10.0527 6.36739 10 6.5 10H9.5C9.63261 10 9.75979 10.0527 9.85355 10.1464C9.94732 10.2402 10 10.3674 10 10.5C10 10.6326 9.94732 10.7598 9.85355 10.8536C9.75979 10.9473 9.63261 11 9.5 11H6.5C6.36739 11 6.24021 10.9473 6.14645 10.8536C6.05268 10.7598 6 10.6326 6 10.5ZM4 7.5C4 7.36739 4.05268 7.24021 4.14645 7.14645C4.24021 7.05268 4.36739 7 4.5 7H11.5C11.6326 7 11.7598 7.05268 11.8536 7.14645C11.9473 7.24021 12 7.36739 12 7.5C12 7.63261 11.9473 7.75979 11.8536 7.85355C11.7598 7.94732 11.6326 8 11.5 8H4.5C4.36739 8 4.24021 7.94732 4.14645 7.85355C4.05268 7.75979 4 7.63261 4 7.5ZM2 4.5C2 4.36739 2.05268 4.24021 2.14645 4.14645C2.24021 4.05268 2.36739 4 2.5 4H13.5C13.6326 4 13.7598 4.05268 13.8536 4.14645C13.9473 4.24021 14 4.36739 14 4.5C14 4.63261 13.9473 4.75979 13.8536 4.85355C13.7598 4.94732 13.6326 5 13.5 5H2.5C2.36739 5 2.24021 4.94732 2.14645 4.85355C2.05268 4.75979 2 4.63261 2 4.5Z" fill="white"/>
<path d="M4 7.5H5.5H4ZM2.5 4V5.5V4ZM13.5 4V5.5V4ZM7.5 10.5C7.5 10.7652 7.39464 11.0196 7.20711 11.2071L5.08579 9.08579C4.71071 9.46086 4.5 9.96957 4.5 10.5H7.5ZM7.20711 11.2071C7.01957 11.3946 6.76521 11.5 6.5 11.5V8.5C5.96957 8.5 5.46086 8.71071 5.08579 9.08579L7.20711 11.2071ZM6.5 11.5H9.5V8.5H6.5V11.5ZM9.5 11.5C9.23479 11.5 8.98043 11.3946 8.79289 11.2071L10.9142 9.08579C10.5391 8.71071 10.0304 8.5 9.5 8.5V11.5ZM8.79289 11.2071C8.60535 11.0196 8.5 10.7652 8.5 10.5H11.5C11.5 9.96957 11.2893 9.46086 10.9142 9.08579L8.79289 11.2071ZM8.5 10.5C8.5 10.2348 8.60535 9.98043 8.79289 9.79289L10.9142 11.9142C11.2893 11.5391 11.5 11.0304 11.5 10.5H8.5ZM8.79289 9.79289C8.98043 9.60535 9.23479 9.5 9.5 9.5V12.5C10.0304 12.5 10.5391 12.2893 10.9142 11.9142L8.79289 9.79289ZM9.5 9.5H6.5V12.5H9.5V9.5ZM6.5 9.5C6.76521 9.5 7.01957 9.60536 7.20711 9.79289L5.08579 11.9142C5.46086 12.2893 5.96957 12.5 6.5 12.5V9.5ZM7.20711 9.79289C7.39464 9.98043 7.5 10.2348 7.5 10.5H4.5C4.5 11.0304 4.71071 11.5391 5.08579 11.9142L7.20711 9.79289ZM5.5 7.5C5.5 7.76522 5.39464 8.01957 5.20711 8.20711L3.08579 6.08579C2.71071 6.46086 2.5 6.96957 2.5 7.5H5.5ZM5.20711 8.20711C5.01957 8.39464 4.76522 8.5 4.5 8.5V5.5C3.96957 5.5 3.46086 5.71071 3.08579 6.08579L5.20711 8.20711ZM4.5 8.5H11.5V5.5H4.5V8.5ZM11.5 8.5C11.2348 8.5 10.9804 8.39464 10.7929 8.20711L12.9142 6.08579C12.5391 5.71071 12.0304 5.5 11.5 5.5V8.5ZM10.7929 8.20711C10.6054 8.01957 10.5 7.76521 10.5 7.5H13.5C13.5 6.96957 13.2893 6.46086 12.9142 6.08579L10.7929 8.20711ZM10.5 7.5C10.5 7.23479 10.6054 6.98043 10.7929 6.79289L12.9142 8.91421C13.2893 8.53914 13.5 8.03043 13.5 7.5H10.5ZM10.7929 6.79289C10.9804 6.60536 11.2348 6.5 11.5 6.5V9.5C12.0304 9.5 12.5391 9.28929 12.9142 8.91421L10.7929 6.79289ZM11.5 6.5H4.5V9.5H11.5V6.5ZM4.5 6.5C4.76522 6.5 5.01957 6.60536 5.20711 6.79289L3.08579 8.91421C3.46086 9.28929 3.96957 9.5 4.5 9.5V6.5ZM5.20711 6.79289C5.39464 6.98043 5.5 7.23478 5.5 7.5H2.5C2.5 8.03043 2.71071 8.53914 3.08579 8.91421L5.20711 6.79289ZM3.5 4.5C3.5 4.76522 3.39464 5.01957 3.20711 5.20711L1.08579 3.08579C0.710715 3.46086 0.5 3.96957 0.5 4.5H3.5ZM3.20711 5.20711C3.01957 5.39464 2.76522 5.5 2.5 5.5V2.5C1.96957 2.5 1.46086 2.71071 1.08579 3.08579L3.20711 5.20711ZM2.5 5.5H13.5V2.5H2.5V5.5ZM13.5 5.5C13.2348 5.5 12.9804 5.39464 12.7929 5.20711L14.9142 3.08579C14.5391 2.71071 14.0304 2.5 13.5 2.5V5.5ZM12.7929 5.20711C12.6054 5.01957 12.5 4.76521 12.5 4.5H15.5C15.5 3.96957 15.2893 3.46086 14.9142 3.08579L12.7929 5.20711ZM12.5 4.5C12.5 4.23479 12.6054 3.98043 12.7929 3.79289L14.9142 5.91421C15.2893 5.53914 15.5 5.03043 15.5 4.5H12.5ZM12.7929 3.79289C12.9804 3.60536 13.2348 3.5 13.5 3.5V6.5C14.0304 6.5 14.5391 6.28929 14.9142 5.91421L12.7929 3.79289ZM13.5 3.5H2.5V6.5H13.5V3.5ZM2.5 3.5C2.76522 3.5 3.01957 3.60536 3.20711 3.79289L1.08579 5.91421C1.46086 6.28929 1.96957 6.5 2.5 6.5V3.5ZM3.20711 3.79289C3.39464 3.98043 3.5 4.23478 3.5 4.5H0.5C0.5 5.03043 0.710715 5.53914 1.08579 5.91421L3.20711 3.79289Z" fill="white" mask="url(#path-1-inside-1_235_19990)"/>
</svg>
