<svg width="24" height="24" viewBox="0 0 24 24" fill="none" xmlns="http://www.w3.org/2000/svg">
<path d="M21.3572 11.7634L22.1178 10.9921C22.2677 10.8402 22.3867 10.6598 22.4678 10.4612C22.549 10.2627 22.5908 10.0499 22.5908 9.83496C22.5909 9.62004 22.5492 9.40721 22.4682 9.20862C22.3871 9.01003 22.2683 8.82958 22.1184 8.67757C21.9686 8.52555 21.7907 8.40495 21.595 8.32264C21.3992 8.24034 21.1893 8.19795 20.9774 8.19789C20.7654 8.19783 20.5556 8.24011 20.3597 8.3223C20.1639 8.40449 19.986 8.52499 19.8361 8.67693L18.2876 10.2481V7.63717L11.839 1.0918H3.76504C3.05178 1.0918 2.36773 1.37913 1.86338 1.89059C1.35903 2.40204 1.07568 3.09573 1.07568 3.81903L1.07568 20.1825C1.07568 20.9058 1.35903 21.5995 1.86338 22.1109C2.36773 22.6224 3.05178 22.9097 3.76504 22.9097H15.5982C16.3115 22.9097 16.9955 22.6224 17.4999 22.1109C18.0042 21.5995 18.2876 20.9058 18.2876 20.1825V14.8763L20.5988 12.5326L20.979 12.9182L20.2185 13.6899C20.1673 13.7403 20.1266 13.8005 20.0985 13.867C20.0705 13.9335 20.0559 14.0049 20.0553 14.0772C20.0548 14.1495 20.0685 14.2212 20.0955 14.2881C20.1226 14.355 20.1624 14.4158 20.2129 14.4669C20.2633 14.518 20.3232 14.5585 20.3892 14.5859C20.4551 14.6133 20.5258 14.6272 20.5971 14.6266C20.6684 14.6261 20.7389 14.6112 20.8045 14.5828C20.87 14.5544 20.9294 14.5131 20.979 14.4612L22.1203 13.3039C22.2211 13.2015 22.2777 13.0628 22.2777 12.9182C22.2777 12.7736 22.2211 12.6349 22.1203 12.5326L21.3572 11.7634ZM12.371 3.18325L16.2155 7.09172H13.9846C13.5568 7.09127 13.1466 6.91872 12.8441 6.61195C12.5416 6.30517 12.3714 5.88922 12.371 5.45538V3.18325ZM17.2118 20.1825C17.2114 20.6163 17.0412 21.0323 16.7387 21.339C16.4362 21.6458 16.026 21.8183 15.5982 21.8188H3.76504C3.33722 21.8183 2.92705 21.6458 2.62454 21.339C2.32202 21.0323 2.15187 20.6163 2.15143 20.1825V3.81903C2.15187 3.38519 2.32202 2.96924 2.62454 2.66246C2.92705 2.35569 3.33722 2.18314 3.76504 2.18269H11.2952V5.45538C11.2952 6.17869 11.5786 6.87237 12.0829 7.38382C12.5873 7.89528 13.2713 8.18261 13.9846 8.18261H17.2118V11.339L12.2294 16.3899C11.994 16.6289 11.8375 16.9361 11.7816 17.2691C11.7256 17.6021 11.773 17.9446 11.9172 18.2491L11.8705 18.2964C11.2894 17.667 10.7229 17.3879 10.1527 17.4591C9.60641 17.5268 9.27781 17.8852 9.01476 18.1767C8.81558 18.3961 8.68573 18.5316 8.53908 18.55C8.47436 18.544 8.30964 18.3544 8.20879 18.2338C7.96044 17.9355 7.62049 17.5289 7.05489 17.4591C6.35481 17.3738 5.66818 17.8 4.94794 18.7622C4.90386 18.8191 4.8714 18.8844 4.85245 18.9542C4.83351 19.024 4.82846 19.097 4.83761 19.1688C4.84675 19.2406 4.8699 19.3098 4.90571 19.3725C4.94152 19.4351 4.98927 19.4899 5.04618 19.5337C5.10308 19.5774 5.16801 19.6092 5.23716 19.6272C5.30632 19.6452 5.37832 19.6491 5.44897 19.6386C5.51962 19.6281 5.5875 19.6035 5.64865 19.5661C5.70981 19.5287 5.76302 19.4794 5.80517 19.421C6.24724 18.8295 6.65442 18.5061 6.92546 18.5423C7.06161 18.5589 7.19692 18.7102 7.38769 18.939C7.63982 19.2373 7.97599 19.6426 8.52227 19.6426C8.57059 19.6425 8.61886 19.6395 8.66682 19.6336C9.2131 19.5663 9.54128 19.2075 9.80433 18.9164C10.0039 18.6965 10.1338 18.561 10.2804 18.5427C10.5502 18.5061 10.9587 18.8303 11.4007 19.4214C11.4505 19.4874 11.5146 19.541 11.588 19.578C11.6615 19.6149 11.7423 19.6342 11.8243 19.6345C11.834 19.6345 11.8436 19.6345 11.8533 19.6345H11.8726C12.0055 19.6284 12.1313 19.5724 12.2256 19.4772L12.6756 19.0208C12.975 19.1694 13.3129 19.219 13.6415 19.1625C13.9701 19.106 14.273 18.9463 14.5074 18.7059L17.2118 15.9676V20.1825ZM13.751 17.9342C13.6501 18.0365 13.5133 18.0939 13.3707 18.0939C13.228 18.0939 13.0913 18.0365 12.9904 17.9342C12.8899 17.8318 12.8334 17.6932 12.8334 17.5488C12.8334 17.4043 12.8899 17.2657 12.9904 17.1633L19.0755 10.9921L19.8361 11.7634L13.751 17.9342ZM20.5966 10.9921L20.4584 10.8502L19.8361 10.2191L20.5966 9.4478C20.637 9.40734 20.6838 9.37394 20.7349 9.34893C20.7817 9.32449 20.8319 9.30712 20.8837 9.29737C20.9144 9.29155 20.9456 9.28827 20.9769 9.28757C21.0095 9.28837 21.042 9.29194 21.074 9.29823C21.1366 9.30895 21.1967 9.33119 21.2513 9.36385C21.3216 9.40647 21.3814 9.46476 21.4261 9.5343C21.4709 9.60383 21.4994 9.68279 21.5096 9.76518C21.5197 9.84757 21.5113 9.93123 21.4848 10.0098C21.4583 10.0884 21.4146 10.1598 21.3568 10.2187L20.5966 10.9921ZM4.84079 9.27351C4.84079 9.12885 4.89745 8.99011 4.99833 8.88782C5.0992 8.78553 5.23601 8.72806 5.37866 8.72806H8.62186C8.76451 8.72806 8.90132 8.78553 9.00219 8.88782C9.10306 8.99011 9.15973 9.12885 9.15973 9.27351C9.15973 9.41817 9.10306 9.55691 9.00219 9.6592C8.90132 9.76149 8.76451 9.81896 8.62186 9.81896H5.37866C5.23601 9.81896 5.0992 9.76149 4.99833 9.6592C4.89745 9.55691 4.84079 9.41817 4.84079 9.27351ZM4.84079 11.4553C4.84079 11.3106 4.89745 11.1719 4.99833 11.0696C5.0992 10.9673 5.23601 10.9099 5.37866 10.9099H11.8499C11.9926 10.9099 12.1294 10.9673 12.2303 11.0696C12.3311 11.1719 12.3878 11.3106 12.3878 11.4553C12.3878 11.6 12.3311 11.7387 12.2303 11.841C12.1294 11.9433 11.9926 12.0007 11.8499 12.0007H5.37866C5.23601 12.0007 5.0992 11.9433 4.99833 11.841C4.89745 11.7387 4.84079 11.6 4.84079 11.4553Z" fill="#002044"/>
</svg>
