<svg width="23" height="22" viewBox="0 0 23 22" fill="none" xmlns="http://www.w3.org/2000/svg">
<path d="M20.3533 10.7823L21.0603 10.0753C21.1996 9.936 21.3102 9.77065 21.3856 9.58865C21.4611 9.40666 21.4999 9.21158 21.5 9.01457C21.5001 8.81756 21.4613 8.62246 21.386 8.44042C21.3106 8.25839 21.2002 8.09297 21.0609 7.95362C20.9216 7.81427 20.7563 7.70372 20.5743 7.62828C20.3923 7.55283 20.1972 7.51398 20.0002 7.51392C19.8032 7.51387 19.6081 7.55262 19.426 7.62796C19.244 7.7033 19.0786 7.81377 18.9392 7.95304L17.4998 9.39325V6.99992L11.5053 1H3.99997C3.33694 1 2.70106 1.26339 2.23222 1.73222C1.76339 2.20106 1.5 2.83694 1.5 3.49997L1.5 18.4998C1.5 19.1628 1.76339 19.7987 2.23222 20.2675C2.70106 20.7364 3.33694 20.9997 3.99997 20.9997H14.9998C15.6629 20.9997 16.2987 20.7364 16.7676 20.2675C17.2364 19.7987 17.4998 19.1628 17.4998 18.4998V13.6358L19.6482 11.4874L20.0017 11.8409L19.2947 12.5483C19.2472 12.5945 19.2093 12.6496 19.1832 12.7106C19.1572 12.7715 19.1435 12.837 19.1431 12.9033C19.1426 12.9696 19.1553 13.0353 19.1804 13.0966C19.2055 13.1579 19.2426 13.2137 19.2895 13.2605C19.3364 13.3074 19.3921 13.3445 19.4534 13.3696C19.5147 13.3947 19.5804 13.4074 19.6467 13.4069C19.713 13.4065 19.7785 13.3928 19.8394 13.3668C19.9004 13.3407 19.9555 13.3029 20.0017 13.2553L21.0626 12.1944C21.1563 12.1006 21.2089 11.9734 21.2089 11.8409C21.2089 11.7083 21.1563 11.5812 21.0626 11.4874L20.3533 10.7823ZM11.9999 2.91716L15.5736 6.49993H13.4998C13.1022 6.49952 12.7209 6.34135 12.4397 6.06014C12.1584 5.77893 12.0003 5.39764 11.9999 4.99995V2.91716ZM16.4998 18.4998C16.4994 18.8975 16.3412 19.2788 16.06 19.56C15.7788 19.8412 15.3975 19.9993 14.9998 19.9998H3.99997C3.60228 19.9993 3.22099 19.8412 2.93978 19.56C2.65857 19.2788 2.5004 18.8975 2.49999 18.4998V3.49997C2.5004 3.10228 2.65857 2.72099 2.93978 2.43978C3.22099 2.15857 3.60228 2.0004 3.99997 1.99999H10.9999V4.99995C10.9999 5.66298 11.2633 6.29886 11.7321 6.76769C12.2009 7.23653 12.8368 7.49992 13.4998 7.49992H16.4998V10.3932L11.8682 15.0233C11.6494 15.2423 11.5039 15.5239 11.4519 15.8292C11.3999 16.1345 11.444 16.4484 11.578 16.7275L11.5346 16.7709C10.9944 16.1939 10.4679 15.9381 9.93778 16.0033C9.42998 16.0654 9.12451 16.3939 8.87998 16.6611C8.69483 16.8623 8.57413 16.9865 8.4378 17.0033C8.37765 16.9978 8.22452 16.824 8.13077 16.7135C7.89992 16.44 7.58391 16.0674 7.05813 16.0033C6.40736 15.9252 5.76909 16.3158 5.09956 17.1978C5.05858 17.2501 5.02841 17.3099 5.0108 17.3739C4.99319 17.4379 4.9885 17.5048 4.997 17.5706C5.0055 17.6364 5.02702 17.6999 5.06031 17.7573C5.0936 17.8147 5.13798 17.8649 5.19088 17.905C5.24378 17.9451 5.30413 17.9743 5.36842 17.9908C5.4327 18.0073 5.49963 18.0109 5.56531 18.0013C5.63098 17.9916 5.69408 17.9691 5.75093 17.9348C5.80778 17.9005 5.85724 17.8553 5.89643 17.8017C6.30736 17.2596 6.68587 16.9631 6.93782 16.9963C7.06438 17.0115 7.19016 17.1502 7.3675 17.3599C7.60188 17.6334 7.91437 18.0049 8.42218 18.0049C8.46709 18.0048 8.51196 18.0021 8.55655 17.9967C9.06436 17.9349 9.36943 17.606 9.61396 17.3392C9.7995 17.1377 9.92021 17.0135 10.0565 16.9967C10.3073 16.9631 10.687 17.2603 11.0979 17.8021C11.1442 17.8627 11.2038 17.9118 11.272 17.9456C11.3403 17.9795 11.4155 17.9972 11.4917 17.9974C11.5007 17.9974 11.5096 17.9974 11.5186 17.9974H11.5366C11.6601 17.9919 11.7771 17.9405 11.8647 17.8533L12.2831 17.4349C12.5614 17.5712 12.8754 17.6166 13.1809 17.5648C13.4864 17.513 13.7679 17.3666 13.9858 17.1463L16.4998 14.6362V18.4998ZM13.2827 16.4389C13.1889 16.5326 13.0617 16.5853 12.9292 16.5853C12.7966 16.5853 12.6694 16.5326 12.5756 16.4389C12.4822 16.345 12.4298 16.218 12.4298 16.0855C12.4298 15.9531 12.4822 15.8261 12.5756 15.7322L18.2322 10.0753L18.9392 10.7823L13.2827 16.4389ZM19.6463 10.0753L19.5177 9.9452L18.9392 9.36669L19.6463 8.65967C19.6838 8.62258 19.7272 8.59196 19.7748 8.56904C19.8183 8.54664 19.8649 8.53071 19.913 8.52178C19.9417 8.51644 19.9707 8.51343 19.9998 8.51279C20.0301 8.51353 20.0602 8.5168 20.09 8.52256C20.1482 8.53239 20.204 8.55278 20.2548 8.58272C20.3202 8.62178 20.3757 8.67521 20.4173 8.73896C20.4589 8.8027 20.4854 8.87508 20.4949 8.9506C20.5043 9.02613 20.4965 9.10281 20.4719 9.17484C20.4473 9.24687 20.4066 9.31234 20.3529 9.3663L19.6463 10.0753ZM4.99996 8.4999C4.99996 8.3673 5.05263 8.24012 5.1464 8.14636C5.24017 8.05259 5.36734 7.99991 5.49995 7.99991H8.51475C8.64736 7.99991 8.77454 8.05259 8.8683 8.14636C8.96207 8.24012 9.01475 8.3673 9.01475 8.4999C9.01475 8.63251 8.96207 8.75969 8.8683 8.85345C8.77454 8.94722 8.64736 8.9999 8.51475 8.9999H5.49995C5.36734 8.9999 5.24017 8.94722 5.1464 8.85345C5.05263 8.75969 4.99996 8.63251 4.99996 8.4999ZM4.99996 10.4999C4.99996 10.3673 5.05263 10.2401 5.1464 10.1463C5.24017 10.0526 5.36734 9.99988 5.49995 9.99988H11.5155C11.6481 9.99988 11.7753 10.0526 11.869 10.1463C11.9628 10.2401 12.0155 10.3673 12.0155 10.4999C12.0155 10.6325 11.9628 10.7597 11.869 10.8534C11.7753 10.9472 11.6481 10.9999 11.5155 10.9999H5.49995C5.36734 10.9999 5.24017 10.9472 5.1464 10.8534C5.05263 10.7597 4.99996 10.6325 4.99996 10.4999Z" fill="white"/>
</svg>
