<svg width="24" height="24" viewBox="0 0 24 24" fill="none" xmlns="http://www.w3.org/2000/svg">
<path d="M21.5 12H16C15.3 14 14 15 12 15C10 15 8.7 14 8 12H2.5" stroke="#BA902E" stroke-width="2" stroke-linecap="round" stroke-linejoin="round"/>
<path d="M5.5 5.09999L2 12V18C2 19.1 2.9 20 4 20H20C20.5304 20 21.0391 19.7893 21.4142 19.4142C21.7893 19.0391 22 18.5304 22 18V12L18.6 5.09999C18.4323 4.76712 18.1749 4.48774 17.8568 4.29338C17.5388 4.09901 17.1727 3.99739 16.8 3.99999H7.2C6.82727 3.99739 6.46123 4.09901 6.14318 4.29338C5.82513 4.48774 5.56772 4.76712 5.4 5.09999H5.5Z" stroke="#BA902E" stroke-width="2" stroke-linecap="round" stroke-linejoin="round"/>
</svg>
