<svg width="24" height="25" viewBox="0 0 24 25" fill="none" xmlns="http://www.w3.org/2000/svg">
<path d="M3 6.19922H5H21" stroke="white" stroke-width="2" stroke-linecap="round" stroke-linejoin="round"/>
<path d="M8 6.19922V4.19922C8 3.66879 8.21071 3.16008 8.58579 2.78501C8.96086 2.40993 9.46957 2.19922 10 2.19922H14C14.5304 2.19922 15.0391 2.40993 15.4142 2.78501C15.7893 3.16008 16 3.66879 16 4.19922V6.19922M19 6.19922V20.1992C19 20.7297 18.7893 21.2384 18.4142 21.6134C18.0391 21.9885 17.5304 22.1992 17 22.1992H7C6.46957 22.1992 5.96086 21.9885 5.58579 21.6134C5.21071 21.2384 5 20.7297 5 20.1992V6.19922H19Z" stroke="white" stroke-width="2" stroke-linecap="round" stroke-linejoin="round"/>
<path d="M10 11.1992V17.1992" stroke="white" stroke-width="2" stroke-linecap="round" stroke-linejoin="round"/>
<path d="M14 11.1992V17.1992" stroke="white" stroke-width="2" stroke-linecap="round" stroke-linejoin="round"/>
</svg>
