<svg width="26" height="23" viewBox="0 0 26 23" fill="none" xmlns="http://www.w3.org/2000/svg">
<path d="M24.875 12.25H18C17.125 14.75 15.5 16 13 16C10.5 16 8.875 14.75 8 12.25H1.125" stroke="#BA902E" stroke-linecap="round" stroke-linejoin="round"/>
<mask id="mask0_1177_13394" style="mask-type:alpha" maskUnits="userSpaceOnUse" x="4" y="2" width="18" height="14">
<path d="M4.25 2.25H21.75V12.25C15.2475 16.9715 9.83891 16.0432 7.375 12.875C6.0721 12.3067 5.52347 13.2902 4.25 12.25V2.25Z" fill="#C4C4C4"/>
</mask>
<g mask="url(#mask0_1177_13394)">
<path d="M15.2215 17.0435C17.1713 13.65 19.1243 10.2577 21.0752 6.86495C21.1863 6.69538 21.1172 6.45156 20.9384 6.36002C18.7172 5.08111 16.4951 3.80398 14.2736 2.52602L14.1867 2.49603C14.1063 2.49665 14.0217 2.50009 13.951 2.54271C13.8364 2.60533 13.7858 2.73227 13.7213 2.83807C13.6429 2.98698 13.5406 3.12408 13.4823 3.28244C13.4113 3.5201 13.6468 3.77313 13.8888 3.72047C14.0859 3.69416 14.1692 3.49407 14.2551 3.34205C16.2656 4.4943 18.2722 5.65372 20.2824 6.80692C18.4205 10.0423 16.5602 13.2783 14.6992 16.5144C14.6496 16.6016 14.5933 16.6864 14.5591 16.7814C14.5012 16.9573 14.6091 17.1638 14.7844 17.2201C14.9488 17.2814 15.143 17.198 15.2215 17.0435Z" fill="#BA902E"/>
<path d="M13.8454 17.6999C15.5225 14.1048 17.2038 10.5115 18.8827 6.91733C18.9795 6.73542 18.8821 6.49457 18.6912 6.42263C16.3893 5.34681 14.0875 4.27066 11.7852 3.19578C11.6114 3.09995 11.3734 3.17811 11.2932 3.35978C11.1803 3.59858 11.0664 3.83705 10.9587 4.07803C10.8897 4.23766 10.96 4.44003 11.1128 4.52259C11.2717 4.61932 11.4995 4.56067 11.592 4.39961C11.6651 4.26591 11.7224 4.12461 11.7884 3.98702C13.8888 4.96523 15.9873 5.94809 18.0864 6.92905C16.4555 10.4223 14.8222 13.9144 13.1922 17.4081C13.1089 17.5663 13.1648 17.7793 13.3179 17.8722C13.4989 17.9975 13.7708 17.9048 13.8454 17.6999Z" fill="#BA902E"/>
<path d="M11.8744 19.8627C12.0513 19.8969 12.2422 19.7921 12.2929 19.6156C13.7469 15.4108 15.197 11.2048 16.6497 6.99963C16.7383 6.80883 16.6308 6.56416 16.4272 6.50662C14.028 5.67644 11.6277 4.84943 9.22822 4.02021C9.04152 3.93516 8.79738 4.03288 8.73827 4.23386C7.28102 8.44915 5.82587 12.6655 4.37072 16.8819C4.30524 17.0438 4.38292 17.2278 4.52146 17.3239L11.8744 19.8627ZM11.7297 19.056C9.53993 18.2974 7.34693 17.5473 5.15895 16.7837C6.54223 12.7908 7.91759 8.79526 9.29833 4.80155C11.4883 5.55949 13.6811 6.31024 15.8692 7.07357C14.4862 11.0665 13.1107 15.0624 11.7297 19.056Z" fill="#BA902E"/>
<path d="M11.9701 17.1816C12.0274 17.0918 12.0516 16.9856 12.088 16.8864C13.0151 14.2013 13.9419 11.5162 14.8696 8.83138C14.9201 8.71081 14.9145 8.56375 14.8303 8.45912C14.7746 8.37707 14.6771 8.3459 14.592 8.30479C14.3046 8.17932 14.1302 7.84304 14.1912 7.53591C14.2091 7.43355 14.2555 7.33 14.2258 7.225C14.1969 7.09477 14.0886 6.99455 13.9622 6.95873C12.9264 6.60145 11.8913 6.24332 10.8555 5.88636C10.667 5.80427 10.4303 5.91235 10.3721 6.1108C10.2728 6.39015 9.98864 6.5883 9.69195 6.58237C9.54064 6.58902 9.39577 6.48968 9.24516 6.5395C9.11997 6.57326 9.03034 6.68282 8.99362 6.80354C8.05218 9.5301 7.11169 12.257 6.16898 14.9831C6.11922 15.1036 6.10121 15.2492 6.17593 15.3637C6.23301 15.4707 6.35286 15.51 6.45532 15.5585C6.72998 15.6898 6.89333 16.0152 6.83667 16.3139C6.81948 16.414 6.77333 16.5138 6.79662 16.6169C6.82139 16.7496 6.92715 16.8574 7.05561 16.8943C8.08989 17.2518 9.1247 17.6088 10.159 17.9663C10.2763 18.0139 10.4175 18.0076 10.5204 17.9296C10.6188 17.8646 10.649 17.7452 10.7005 17.6462C10.8396 17.3803 11.1621 17.2262 11.4563 17.2866C11.5535 17.3039 11.6515 17.348 11.7513 17.324C11.8394 17.3072 11.9168 17.2527 11.9701 17.1816ZM10.1328 17.1994C9.27573 16.9063 8.42092 16.6065 7.56349 16.3143C7.60165 15.8021 7.35204 15.2827 6.9215 14.9995C7.80845 12.4298 8.6936 9.85907 9.58477 7.29043C10.0939 7.33354 10.612 7.08275 10.8947 6.65741C11.752 6.95094 12.608 7.24934 13.4651 7.54351C13.4257 8.05429 13.6752 8.57295 14.1034 8.85562C13.2175 11.4243 12.3304 13.9926 11.4433 16.5608C10.933 16.5209 10.4142 16.7707 10.1328 17.1994Z" fill="#BA902E"/>
<path d="M12.2579 12.8452C12.4856 12.4147 12.545 11.8984 12.4194 11.4278C12.2999 10.9643 12.0027 10.5498 11.6029 10.2866C11.2122 10.0246 10.7258 9.91274 10.2597 9.97498C9.7924 10.0347 9.3507 10.2689 9.0385 10.6213C8.71861 10.9795 8.53732 11.4573 8.54278 11.9378C8.54215 12.4708 8.77141 12.9988 9.161 13.3625C9.52016 13.7044 10.0125 13.8999 10.5079 13.8996C11.2272 13.9085 11.9293 13.4853 12.2579 12.8452ZM11.5661 12.6127C11.3751 12.9079 11.0556 13.1159 10.708 13.169C10.4034 13.2178 10.0819 13.1493 9.82458 12.9789C9.53598 12.7923 9.33292 12.4813 9.27536 12.1425C9.21965 11.828 9.29123 11.4933 9.46991 11.2286C9.65209 10.9548 9.94628 10.7584 10.2696 10.6965C10.5615 10.638 10.8738 10.6883 11.1319 10.8367C11.4382 11.0081 11.6638 11.3145 11.7382 11.657C11.8117 11.9815 11.7478 12.3341 11.5661 12.6127Z" fill="#BA902E"/>
</g>
<path d="M4.875 2.461L0.5 11.625V19.5938C0.5 21.0547 1.625 22.25 3 22.25H23C23.663 22.25 24.2989 21.9701 24.7678 21.472C25.2366 20.9739 25.5 20.2982 25.5 19.5938V11.625L21.25 2.461C21.0403 2.0189 20.7186 1.64786 20.321 1.38972C19.9235 1.13158 19.4659 0.996619 19 1.00006H7C6.53409 0.996619 6.07654 1.13158 5.67898 1.38972C5.28141 1.64786 4.95965 2.0189 4.75 2.461H4.875Z" stroke="#BA902E" stroke-linecap="round" stroke-linejoin="round"/>
</svg>
