<svg width="16" height="16" viewBox="0 0 16 16" fill="none" xmlns="http://www.w3.org/2000/svg">
<path d="M14.3332 8H10.6665C10.1998 9.33333 9.33317 10 7.99984 10C6.6665 10 5.79984 9.33333 5.33317 8H1.6665" stroke="white" stroke-linecap="round" stroke-linejoin="round"/>
<path d="M3.66683 3.39987L1.3335 7.99987V11.9999C1.3335 12.7332 1.9335 13.3332 2.66683 13.3332H13.3335C13.6871 13.3332 14.0263 13.1927 14.2763 12.9427C14.5264 12.6926 14.6668 12.3535 14.6668 11.9999V7.99987L12.4002 3.39987C12.2883 3.17796 12.1167 2.9917 11.9047 2.86213C11.6927 2.73255 11.4486 2.66481 11.2002 2.66654H4.80016C4.55168 2.66481 4.30765 2.73255 4.09562 2.86213C3.88358 2.9917 3.71198 3.17796 3.60016 3.39987H3.66683Z" stroke="white" stroke-linecap="round" stroke-linejoin="round"/>
</svg>
