<svg width="71" height="72" viewBox="0 0 71 72" fill="none" xmlns="http://www.w3.org/2000/svg">
<path d="M64.0717 35.2882L66.3535 32.9743C66.8032 32.5185 67.16 31.9774 67.4034 31.3818C67.6469 30.7861 67.7723 30.1477 67.7725 29.5029C67.7727 28.8582 67.6476 28.2197 67.4045 27.6239C67.1613 27.0282 66.8048 26.4868 66.3554 26.0307C65.9059 25.5747 65.3722 25.2129 64.7849 24.966C64.1975 24.7191 63.568 24.5919 62.9322 24.5917C62.2963 24.5915 61.6667 24.7184 61.0792 24.9649C60.4918 25.2115 59.9579 25.573 59.5082 26.0288L54.8628 30.7423V22.9095L35.517 3.27344H11.2951C9.15534 3.27344 7.10319 4.13544 5.59014 5.66981C4.07708 7.20417 3.22705 9.28523 3.22705 11.4552L3.22705 60.5454C3.22705 62.7154 4.07708 64.7964 5.59014 66.3308C7.10319 67.8651 9.15534 68.7271 11.2951 68.7271H46.7947C48.9345 68.7271 50.9866 67.8651 52.4997 66.3308C54.0127 64.7964 54.8628 62.7154 54.8628 60.5454V44.6269L61.7963 37.5957L62.9371 38.7527L60.6554 41.0678C60.5019 41.219 60.3797 41.3995 60.2957 41.599C60.2116 41.7984 60.1676 42.0128 60.166 42.2297C60.1644 42.4466 60.2054 42.6617 60.2865 42.8624C60.3677 43.0631 60.4873 43.2454 60.6386 43.3988C60.7898 43.5521 60.9696 43.6735 61.1675 43.7558C61.3654 43.838 61.5775 43.8796 61.7914 43.878C62.0053 43.8764 62.2167 43.8317 62.4134 43.7465C62.6101 43.6613 62.7881 43.5373 62.9371 43.3817L66.361 39.9096C66.6632 39.6026 66.833 39.1865 66.833 38.7527C66.833 38.3188 66.6632 37.9028 66.361 37.5957L64.0717 35.2882ZM37.113 9.54779L48.6465 21.2732H41.9538C40.6704 21.2719 39.4398 20.7542 38.5323 19.8339C37.6248 18.9136 37.1143 17.6657 37.113 16.3642V9.54779ZM51.6355 60.5454C51.6342 61.847 51.1237 63.0948 50.2162 64.0151C49.3086 64.9355 48.0781 65.4531 46.7947 65.4545H11.2951C10.0117 65.4531 8.78115 64.9355 7.87361 64.0151C6.96606 63.0948 6.45562 61.847 6.45428 60.5454V11.4552C6.45562 10.1536 6.96606 8.90577 7.87361 7.98544C8.78115 7.06511 10.0117 6.54748 11.2951 6.54612H33.8857V16.3642C33.8857 18.5341 34.7358 20.6152 36.2488 22.1495C37.7619 23.6839 39.814 24.5459 41.9538 24.5459H51.6355V34.0149L36.6881 49.1677C35.9819 49.8847 35.5124 50.8064 35.3447 51.8054C35.1769 52.8045 35.319 53.8317 35.7515 54.7454L35.6116 54.8873C33.8681 52.9991 32.1688 52.1617 30.4581 52.3752C28.8192 52.5785 27.8334 53.6536 27.0443 54.528C26.4467 55.1864 26.0572 55.5929 25.6172 55.6479C25.4231 55.63 24.9289 55.0611 24.6264 54.6993C23.8813 53.8045 22.8615 52.5849 21.1647 52.3752C19.0644 52.1195 17.0046 53.3979 14.8438 56.2845C14.7116 56.4554 14.6142 56.6513 14.5574 56.8607C14.5005 57.0702 14.4854 57.289 14.5128 57.5044C14.5403 57.7198 14.6097 57.9276 14.7171 58.1155C14.8246 58.3034 14.9678 58.4678 15.1385 58.599C15.3093 58.7302 15.504 58.8256 15.7115 58.8797C15.919 58.9338 16.135 58.9454 16.3469 58.9139C16.5588 58.8825 16.7625 58.8085 16.946 58.6964C17.1294 58.5843 17.2891 58.4363 17.4155 58.2609C18.7417 56.4865 19.9633 55.5162 20.7764 55.6249C21.1848 55.6748 21.5908 56.1286 22.1631 56.8151C22.9195 57.71 23.928 58.9257 25.5668 58.9257C25.7118 58.9256 25.8566 58.9166 26.0005 58.8989C27.6393 58.6969 28.6238 57.6205 29.413 56.7473C30.0118 56.0877 30.4013 55.6811 30.8413 55.6262C31.6506 55.5162 32.876 56.4891 34.2022 58.2622C34.3515 58.4604 34.5438 58.6211 34.7641 58.7319C34.9844 58.8428 35.2269 58.9007 35.4729 58.9014C35.5019 58.9014 35.5309 58.9014 35.5599 58.9014H35.6179C36.0164 58.8834 36.394 58.7151 36.6768 58.4297L38.0269 57.0605C38.9251 57.5063 39.9386 57.655 40.9245 57.4855C41.9104 57.316 42.819 56.8369 43.5221 56.1158L51.6355 47.9008V60.5454ZM41.2529 53.8006C40.9503 54.1074 40.5399 54.2798 40.112 54.2798C39.6841 54.2798 39.2738 54.1074 38.9712 53.8006C38.6696 53.4935 38.5003 53.0777 38.5003 52.6443C38.5003 52.2109 38.6696 51.7952 38.9712 51.488L57.2264 32.9743L59.5082 35.2882L41.2529 53.8006ZM61.79 32.9743L61.3752 32.5486L59.5082 30.6553L61.79 28.3414C61.9111 28.2201 62.0513 28.1199 62.2047 28.0449C62.3452 27.9715 62.4956 27.9194 62.651 27.8902C62.7433 27.8727 62.8369 27.8629 62.9308 27.8608C63.0286 27.8632 63.126 27.8739 63.222 27.8927C63.4097 27.9249 63.59 27.9916 63.754 28.0896C63.9648 28.2175 64.1442 28.3923 64.2784 28.6009C64.4126 28.8095 64.4982 29.0464 64.5287 29.2936C64.5592 29.5408 64.5338 29.7917 64.4544 30.0275C64.375 30.2632 64.2437 30.4775 64.0704 30.6541L61.79 32.9743ZM14.5224 27.8186C14.5224 27.3846 14.6924 26.9684 14.995 26.6615C15.2976 26.3546 15.708 26.1822 16.136 26.1822H25.8656C26.2935 26.1822 26.704 26.3546 27.0066 26.6615C27.3092 26.9684 27.4792 27.3846 27.4792 27.8186C27.4792 28.2526 27.3092 28.6688 27.0066 28.9756C26.704 29.2825 26.2935 29.4549 25.8656 29.4549H16.136C15.708 29.4549 15.2976 29.2825 14.995 28.9756C14.6924 28.6688 14.5224 28.2526 14.5224 27.8186ZM14.5224 34.3639C14.5224 33.93 14.6924 33.5138 14.995 33.2069C15.2976 32.9 15.708 32.7276 16.136 32.7276H35.5498C35.9777 32.7276 36.3882 32.9 36.6908 33.2069C36.9934 33.5138 37.1634 33.93 37.1634 34.3639C37.1634 34.7979 36.9934 35.2141 36.6908 35.521C36.3882 35.8279 35.9777 36.0003 35.5498 36.0003H16.136C15.708 36.0003 15.2976 35.8279 14.995 35.521C14.6924 35.2141 14.5224 34.7979 14.5224 34.3639Z" fill="#BA902E"/>
</svg>
